/* XPM */
static char *_59257a7a3e144d9ba437245799217fchnGDGYoJf9FPtiPQ[] = {
/* columns rows colors chars-per-pixel */
"72 72 196 2 ",
"   c #1F1E25",
".  c #1F1E28",
"X  c #211E26",
"o  c #201F28",
"O  c #1F2027",
"+  c #1F212A",
"@  c #212026",
"#  c #23242C",
"$  c #28262F",
"%  c #25292F",
"&  c #242730",
"*  c #252931",
"=  c #2B2C35",
"-  c #2C2E39",
";  c #2E313A",
":  c #30323C",
">  c #2F3744",
",  c #333642",
"<  c #343944",
"1  c #343E48",
"2  c #3B3F49",
"3  c #383B44",
"4  c #3D444F",
"5  c #3E4451",
"6  c #3A4B5A",
"7  c #3D4953",
"8  c #3F505E",
"9  c #394E61",
"0  c #40414A",
"q  c #424B54",
"w  c #464E5A",
"e  c #484E5A",
"r  c #47505D",
"t  c #4B525E",
"y  c #435160",
"u  c #4C5664",
"i  c #4C5D6B",
"p  c #4C5865",
"a  c #505967",
"s  c #525E6E",
"d  c #505663",
"f  c #445E75",
"g  c #52606E",
"h  c #556374",
"j  c #576876",
"k  c #5D6A7A",
"l  c #606D7E",
"z  c #5C6F83",
"x  c #616D82",
"c  c #657384",
"v  c #66778C",
"b  c #68778E",
"n  c #67798D",
"m  c #697A8D",
"M  c #707A88",
"N  c #677A91",
"B  c #697B91",
"V  c #6C7E98",
"C  c #6D8096",
"Z  c #6C849B",
"A  c #6C8A9E",
"S  c #71869C",
"D  c #738B9E",
"F  c #6E89A1",
"G  c #758DA3",
"H  c #748FAA",
"J  c #778BA1",
"K  c #7690A6",
"L  c #7593AD",
"P  c #7A94AC",
"I  c #7D99AD",
"U  c #7C93A4",
"Y  c #7496B2",
"T  c #7B97B1",
"R  c #779BB4",
"E  c #7D9CB6",
"W  c #7D9DBB",
"Q  c #79A1BE",
"!  c #7FA8C7",
"~  c #7AABCA",
"^  c #7EB3D5",
"/  c #76B9DE",
"(  c #7EBBDF",
")  c #73B5DE",
"_  c #76BAE1",
"`  c #7FBCE1",
"'  c #6EBCF3",
"]  c #72BDF3",
"[  c #7AC3EE",
"{  c #74C1F5",
"}  c #7BC4F3",
"|  c #7ECAF6",
" . c #76C5FB",
".. c #79C7FB",
"X. c #77C8FE",
"o. c #7ECDFE",
"O. c #7ED0FF",
"+. c #819CAF",
"@. c #809DB6",
"#. c #809EB8",
"$. c #84A2B5",
"%. c #83A2BC",
"&. c #89A5BC",
"*. c #84ABC3",
"=. c #82ACCA",
"-. c #8AAFCC",
";. c #89AAC3",
":. c #8AB1CB",
">. c #87B1CC",
",. c #91B4CC",
"<. c #85B4D5",
"1. c #8AB5D2",
"2. c #8DBAD6",
"3. c #85BBDD",
"4. c #84B6DA",
"5. c #92BED9",
"6. c #81BDE2",
"7. c #89BEE0",
"8. c #8CC1DF",
"9. c #92C1D9",
"0. c #82C1E4",
"q. c #89C1E2",
"w. c #83C4EE",
"e. c #8CC6EA",
"r. c #93C6E4",
"t. c #94CBE6",
"y. c #91C7EA",
"u. c #93CAEB",
"i. c #99CEEB",
"p. c #9BC9E3",
"a. c #94D1ED",
"s. c #83C6F2",
"d. c #82CCF6",
"f. c #8ACDF5",
"g. c #82CDFE",
"h. c #85CFFD",
"j. c #85CEFE",
"k. c #82CEFD",
"l. c #88CDFA",
"z. c #84D0F7",
"x. c #8CD1F7",
"c. c #85D0FB",
"v. c #86D1FB",
"b. c #83D0FC",
"n. c #83D1FF",
"m. c #82D2FF",
"M. c #84D1FD",
"N. c #84D1FE",
"B. c #84D1FF",
"V. c #85D0FE",
"C. c #86D1FE",
"Z. c #86D2FD",
"A. c #86D5FE",
"S. c #85D1FE",
"D. c #8AD3FB",
"F. c #8DD5FB",
"G. c #89D3FD",
"H. c #8AD3FD",
"J. c #89D3FE",
"K. c #8AD3FE",
"L. c #8CD3FE",
"P. c #89D4FC",
"I. c #8BD4FD",
"U. c #8AD5FD",
"Y. c #8BD5FD",
"T. c #89D5FE",
"R. c #8BD4FE",
"E. c #8BD4FF",
"W. c #8AD5FE",
"Q. c #8BD6FE",
"!. c #8AD6FD",
"~. c #8CD5FD",
"^. c #8CD6FD",
"/. c #8CD6FC",
"(. c #8CD5FE",
"). c #8CD5FF",
"_. c #8CD6FE",
"`. c #8DD6FF",
"'. c #8ED5FD",
"]. c #8BD5FD",
"[. c #8DD8FE",
"{. c #92D3F6",
"}. c #98D6F5",
"|. c #92D6FD",
" X c #93DAFD",
".X c #99DBFD",
"XX c #99DBFE",
"oX c #98DCFE",
"OX c #9BDCFD",
"+X c #A2DCFC",
"@X c #97E0FF",
"#X c #9BE0FE",
"$X c #A5E1FE",
"%X c #ACE5FE",
"&X c #B4E5FD",
"*X c #B3E9FC",
/* pixels */
"H.H.H.H.M.M.M.M.M.W.)./.).).v.k.g.g.g.g.h.g.g.g.h.} | | } d.| d.[ A.n.H.W.W.A.W.W.W.W.W.W.P.oXXXXXXXoXF.M.n.M.M.M.M.M.M.M.M.W.W.W.W.W.).).).).).",
"H.H.H.H.M.M.M.M.M.W.)./.).).v.k.g.g.g.g.h.g.g.g.| d.g.} g.} | d.| M.n.H.W.W.W.W.W.W.W.W.W.D.oXXXXXXXXXD.M.n.M.M.M.M.M.M.M.M.W.W.W.W.W.W.).).W.).",
"H.H.H.H.M.M.M.M.M.W.).).).).v.k.g.g.g.g.h.g.g.k.} g.g.g.} g.o.d.v.n.n.M.W.W.W.W.W.W.W.W.W.H.oXXXXXXXoXD.M.n.M.M.M.M.n.M.M.M.W.).W.W.W.).).).).).",
"H.H.H.H.M.M.M.M.M.W.).).).).v.k.g.g.g.g.h.h.o.| k.} h.h.g.g.M.M.b.n.n.M.W.W.W.W.W.W.W.W.W.).oXoXXXoXoXD.M.n.M.M.M.M.M.M.M.M.W.W.W.W.W.).).).).).",
"W.W.W.W.H.H.H.H.H.W.).).).).v.k.g.g.g.g.g.} ..o.{ ..{ o.o.o.h.M.M.M.M.W.W.W.).).).W.W.W.W.)./././.).).v.g.g.g.g.M.H.H.H.H.H.W.W.W.W.W.H.W.W.H.W.",
"W.W.W.W.).).).).).).).L.W.W.h.g.g.g.g.o.{ ] .. .{ {  ...X.X.M.H.P.W.W.W.).).).).).W.W.W.L.).h.h.h.h.M.o.o.o.o.o.n.).).).).).W.W.W.W.W.v.n.n.n.M.",
"W.W.W.W.W.W.W.W.W.W.W.L.W.W.h.g.g.g.g.o. .]  ...{  .o.X.o.X.M.M.P.W.W.W.).).).).).W.W.W.L.).v.M.h.h.M.o.o.o.o.o.n.).).).).).W.W.W.W.W.M.M.M.M.n.",
").W.W.W.W.).).).).).).L.W.W.h.g.g.g.g.o... .' ] ] ....X.X...M.M.W.W.W.W.).).).).).W.W.W.L.).v.h.h.h.g.o.o.o.o.o.n.W.).).).).W.W.W.W.).M.M.M.M.M.",
"W.H.W.W.).).).).).).W.W.W.W.M.g.o.g.g.g..... .' X...X.X.....M.H.D.W.H.W.).).).).)./.).).).).h.M.h.h.g.g.o.o.o.o.b.W.).).W.).W.W.W.W.).h.M.M.M.M.",
"W.W.).W.H.H.H.H.H.H.H.M.M.M.g.o.o.g.o.o.d.d.d.d.| x.f.f.f.f.F.).P.).).W.).).W.).).|.|.|.|.[.k.g.g.g.g.o.o.o.o.o.b.W.).).W.W.W.W.W.W.W.M.M.M.M.M.",
").).).W.k.o.o.o.o.o.o.o.o.o.o.o.o.o.o.d.oXoXXX.X.X*X&X&X*X*X X X X X X).W.W.W.W./.oXoXoXoX@Xd.o.o.o.o.o.o.o.g.o.n.P.W.W.W.W.v.M.M.M.M.M.M.M.M.M.",
"W.W.W.W.o.o.o.o.o.o.o.o.o.o.o.o.o.o.o.d.XXXXXXXX.X*X&X&X&X*X}.|.).|.|.).W.W.W.W./.oXoXoXOXoXd.o.o.o.o.o.o.o.o.g.n.A.A.A.A.M.M.M.M.M.M.M.M.M.M.h.",
"W.W.W.W.o.o.o.o.o.o.o.o.o.o.o.o.o.o.o.h.oXXXXXXX}.&X&X&X&X*X}.|.|.|.|.).W.W.W.W./.oXoXoXOXoXk.o.o.o.o.o.o.o.o.o.n.A.A.A.A.A.M.M.M.M.M.M.M.M.M.M.",
"W.W.).W.o.o.o.o.o.o.o.o.o.o.o.o.o.o.o.h.oXXXXXXX.X*X&X&X*X*X}. X|.|.|.).W.W.W.)./.oXoXOXOXoXk.o.o.o.o.o.o.o.o.o.n.A.A.A.A.A.M.M.M.M.M.M.M.M.M.n.",
"W.W.).W.o.o.o.o.o.o.g.o.g.k.k.k.o.k.d.d. X X X XXX%X*X%X%X%X X X[.|.|./.P.W.L.L./.oXoXoXoXoXk.O.o.o.o.g.g.o.o.g.n.A.A.A.A.A.M.M.M.M.M.M.M.M.M.M.",
"M.M.M.M.o.o.o.o.o.M.W.W.W.W. X X X X X X|.|.|.|.|.{.{.{.{.{./.).!.).). XoXoXoXoXoXd.d.d.d.b.O.o.o.o.o.n.n.n.n.n.M.W.W.W.W.W.W.W.W.W.W.W.W.W.W.W.",
"M.M.M.n.o.o.o.o.g.A.W.W.W.H.|.XXXXXXXXXX|.|.|.|. X/.W.W.).).).W.W.W.). XoXOXOXoX Xg.o.o.g.O.o.o.o.o.o.n.M.M.M.M.M.H.H.H.H.W.W.W.W.H.W.).W.W.).).",
"M.M.M.M.o.o.o.o.o.P.W.W.W.W. XXX.X}.}.}.{.{.{.{.x.D.D.D.F.F.D.D.D.D.x.{..X.X.X.X X| o.o.o.o.o.o.o.o.| | d.d.h.h.M.W.W.W.W.H.W.W.W.W.W.).).).).).",
"M.M.n.M.o.o.o.o.o.A.W.W.W.W. XXXr.;.P P P P T T T E %.:.-.-.-.:.>.:.-.:.,.,.,.,.:.=.=.=.=.=.=.=.=.! R H L K =.f.M.W.W.W.W.H.W.W.W.W.W.).).).).).",
"n.n.n.M.o.o.o.o.o.A.W.W.W.W. XXX5.@.C C V C C C C S P %.%.%.%.%.%.%.%.%.&.&.&.&.&.W W W W W W W W E G N V N Q e.M.W.W.W.W.H.W.W.W.W.W.).).).).).",
"o.g.g.g.o.o.o.o.o.n.M.M.M.v.).|.2.P B N N N N n n C G @.@.#.#.#.#.@.@.@.@.@.@.@.@.E E W W W W W E E F v N v W e.W.W.W.W.W.). X X[. X X).).).).).",
"o.o.o.o.o.o.o.o.o.k.D.h.h.h.F.|.2.P N N N N N n n C G E @.E E E E E E E @.E @.@.E E E E E E E E E E S v n v E e.L.L.L.L.L.F. X X X X X).).).).).",
"o.o.o.o.o.o.o.s.w.e.e.e.e.e.y.u.;.G B N N N N N N C G @.@.@.@.@.@.@.@.@.E E E E E E E E E E E E E E S v n n P 1.y.y.y.y.y.y.t.a. X X X/.).).).).",
"o.o.o.o.o.o.} Q Y Y Y L L L L T J C B N N N N N N C G @.@.@.@.@.@.@.@.@.E E E @.E E E E E E E E E E S v n n Z K L L L L L P P *.t. X X/.).).).).",
"o.o.o.o.o.o.[ F V N n n v v n b b b N N N N N N N C G @.@.@.@.@.@.@.@.@.E E E E E E E E E E E E E E S v n n n n n b n n n b b K 9.{. X).).).).).",
"g.g.g.n.g.g.} F V N N n v v N N n n b b n n n n n C G E E E E E E E E E E E E E E E E E E E E E E E S n b b m m m b b n b b v K 5.F.[.W.H.H.H.M.",
"g.g.g.g.M.M.s.A m n n v v v N N n n m m n n n n n B G E E E E E E E E E E E E E E E E E E E E E @.I S v m m m b b b n m b b n G 2.x.).v.M.M.M.M.",
"g.g.s.4.<.<.=.Z n v v v v v n n j p e e e e e w e r u s s s s s s s s s s s s s s s s s s s g g s s u e e e a l N b n n b b n Z $.1.2.<.3.h.M.M.",
"o.d.6.T P P H V n v v v v n n n p 3 = = = = = = = = - : : : : : : : : : : : : : : : : : : : : : : : ; = = = 4 h N m n n n n n B S P P P E d.M.M.",
"o.w.=.V b N N N n n n n n n n b e = @ X X X X X X X X X X X X X X X X X X X X X X X X X X X X X X X X . . . , s N m n n n n n b b n v n F w.M.M.",
"g.w.=.V b N b N b n n n n n n b e = @ . . . . . . . . . . . . . . . . . . . . . . . . . . . . . . . . . O   , s b m m n n n n b m n n n A w.h.g.",
"g.w.=.V b N b x k k k k k k k k 5 = O . . X X X X . . . . . . . . . . . . . . . . . . . . . . . . . . . O . , t k k k k k k k l c v n n A w.g.o.",
"g.w.=.V b N c w 5 5 5 4 4 4 4 4 ; # . . . X X X X X . . .       . . . . . . . . . . . . . . . . . . . . . . = < 5 5 5 4 5 5 5 e h v b n A w.g.o.",
"g.w.=.V b b x - + . . . . . . . . . . . .     X X X . . .     . . . . . . . . . . . . . . . . . . . . . . X o o . . . . . . . = e c b n A w.o.o.",
"g.w.=.C b b x - # . . X X . . . . . . . .     X X   . . . . . . . . . . .   .   . .   . .     . . . . . . X X X X X X X X o . - e c m n A w.g.o.",
"k.w.=.V b b l = O . . . . . . . . . . . .     . . . . . . . . . . . . . .             . .     . .       . . @ X . . . . . . . = e c m v A w.g.o.",
"OXi.&.k s s d * O . . . . . . . . X X . . . . . . . . . . . . . . . . . . . . . . . . . . . . . . .       . O . o o o o . . . * 2 a s s z 6.k.o.",
"OXr.U 0 , , : # . . . . . . . . X X X X . . . . . . . . . . . . . . . . . . . . . . . . . . . . . .   . . X X X X X X X X O . # = , < < y ( k.o.",
"+X5.M =   .   . . . . . . . . . X X X X . . . . . . . . . . . . . . . .   . . . . . .   . . . . . . . . . X X X X X X X X X X . . . . . > ^ g.o.",
"+X5.m = . . . . . . . . . . . . X X X X . . . . . . . . . . . . . .       . . . . . .       . . . . . . . X X X X X X X X X X X X . . . , ^ g.o.",
"+X5.m = . . . . . . . . . . X X X X X . . . . . . .         . . .       . . .     . . .       . . . . . . X X X X X X X X X X X X . . . > ^ d.o.",
"+Xp.I i r y 6 # . . . . . X X X X     . . . . . . .           . .   . . . . .     . . . . .   . . . . . . X X X X X X X X X X $ < 6 9 9 f ( g.o.",
"+X+X$X+X}.|.6.1 # X . . . X X X X     . . . . . . .           . . . . . . . . . . . . . . . . . . . . . . X X X X X X X X X X 2 S [ k.g.k.o.o.o.",
"$X$X$X$X|./.0.1 # . . . . X X X X . . . . . . . .             . . . . . . . . . . . . . . . . . . . . . . X X X X X X X o o . 4 G } o.o.o.o.o.o.",
"$X$X$X$X|.).6.1 # . . . . X X X . . . . . . . X X           . . . . . . . . . . . . . . . . . . . . . . . X X X o o # o o o . 5 K [ o.o.o.o.o.o.",
"$X$X$X$X|.).0.7 ; = = = = = = = $ # . . . . . X X X       . . . . . . . . .         . . . . . . . . . . . X @ $ = = = = = = = e I } o.o.o.o.o.o.",
".X.X.XXX|.).w.j t e e e e e e e < * O O O O @ X X X . . . . . . .     . . . .     . . . .     . . . . . X X = 0 e r e e e e e k =.| o.n.n.n.n.b.",
"H.D.P.H.).).D.0.6.( ( ( ( ( ( ( v 4 O . O O @ X X X . . . . . . .     . . . .     . . . .     .   . . . .   p R / / _ _ _ / ) _ | o.o.W.W.W.W.W.",
"W.W.W.W.W.).).).W.W.W.W.W.W.W.A.A q O . O O @ X X X . . . . . . . . . . . . . . . . . . . . . .   . . . .   g =.O.O.m.m.m.O.o.o.o.o.k.W.H.H.H.W.",
"W.W.W.W.).).).).).W.W.W.W.W.W.A.Z 4 . . . . . . . . . . .                     .             . .     . . .   i *.n.n.m.n.O.O.O.o.o.o.g.W.W.H.W.W.",
"W.W.W.W.).).).).).W.W.W.W.W.W.W.A w * & & $ & & & # # # # # $ * * * * % % % * * % * * * * % $ & $ $ & & & + h =.n.O.O.n.m.O.o.o.o.o.g.W.A.M.A.W.",
"W.W.W.W.W.).).).).W.W.W.W.W.)./.8.$.D D D D D D D D D D D D U +.$.$.$.$.$.$.$.$.$.$.$.$.$.U G G D D G D G S ~ d.n.n.O.n.m.O.o.o.o.o.g.W.W.W.W.W.",
").).).).W.W.W.W.W.W.W.W.W.H. XoX}.i.r.r.7.q.q.q.q.q.q.q.q.q.y.y.t.u.u.u.u.u.u.u.y.y.y.y.u.e.3.6.6.3.6.6.` ` } o.o.O.O.O.O.O.g.g.g.g.g.W.).W.).L.",
").).).).W.W.W.W.W.W.W.W.W.H. XOXOX+XOXXXL.W.W.W.W.W.W.W.W.H. X X X X X X|.|.|.|.|.|.|.|.|.).h.g.n.o.O.o.o.o.o.o.o.O.O.O.O.O.g.h.g.g.h.L.L.L.L.L.",
").).).).W.W.W.W.W.W.W.W.W.H. XOX}.OXOXoXL.W.W.W.W.W.W.W.W.H. X X X X X X|.|.|.|.|.|.|.|.).).k.g.O.O.n.o.o.o.o.o.o.O.O.O.O.n.g.h.g.g.h.).W.W.W.L.",
").).).).H.L.H.W.W.W.W.W.W.W. XXXOXOXOXXX).).W.W.).W.W.W.W.P.[. X X X X|.|.|.|. X|.|.|.).).).h.g.g.g.g.o.o.o.o.o.O.O.O.O.O.O.n.g.g.g.h.W.W.L.W.H.",
"W.W.W.).H.W.W.W.H.)./.).)./.{.XXoXXXoX X/.W.).W.W././././.F.[. X X X X|.).|.|. X|. X).L.).W.g.g.n.g.o.o.o.o.o.o.o.b.n.n.b.b.k.g.h.h.v.W.).).W.D.",
"v.M.M.H.M.M.v.M.h. XXXOXOXOX{.{.F./.F.).W.W.).).[.@XoXoXoXoX|.).).).).H.H.D.H.D.H.h.h.k.k.k.g.g.g.o.o.o.O.O.O.o.A.!.[.[.!.!.W.W.).W.).).).).).F.",
"M.n.M.M.h.n.M.h.h. XOXOXOXOX{.L.W.W.W.W.W.).).)./.@X@XOXOX@X|.).W.W.W.H.M.M.H.M.M.k.n.o.o.o.g.g.o.o.o.O.O.O.O.o.P.[.[.[.[.[.W.W.).).).).).).).F.",
"M.n.M.M.h.h.n.h.l. XOX+XOXOX{.L.W.W.W.W.).).W.)./.@XOXOXOX#X[.).W.W.W.H.W.H.H.W.M.M.n.o.o.o.o.o.o.o.o.O.O.O.O.O.P.[.|.).[.[.W.W.W.W.).).|.).).F.",
"M.n.M.M.h.h.M.h.l. XOXOXOXOX XL.).W.W.W.W.W.W.)./.@XOXOXoX@X[.W.W.W.).).v.M.H.M.n.g.n.o.o.o.o.o.o.o.o.O.O.O.O.O.P.).|.).[.[.W.W.W.W.).).|.).).F.",
"M.n.n.M.l.l.h.h.d..XoXOXOXOX XL.).H.W.).).).).W.[.@X#XOX@X@X[.W.W.).[.W.M.M.v.M.n.g.o.o.o.o.o.o.o.o.o.o.O.O.O.O.M.[.[.[.[.[.).).W.).W.).|.|.|.{.",
"M.M.A.D. X X X X Xx.D.D.D.D.D.H.M.M.M.M.H.H.H.M.D. X X|. X[.P.H.P.W.W.W.W.v.W.M.M.g.g.g.g.g.o.o.o.o.o.o.o.o.o.o.v./.W.W.H.).W.W.W.).W.).).).).|.",
"W.W.W.F.oXOXOXOXoXh.o.o.g.g.g.M.n.M.M.M.M.M.M.M.M.).).).).W.D.W.W.H.W.M.A.W.M.M.M.g.g.g.n.g.o.o.o.o.o.o.o.o.o.o.M.W.).).).).W.W.W.W.W.).).).).).",
"W.W.W.F.XXOXOX}.OXv.o.o.o.o.g.M.M.M.M.M.M.M.M.M.M.W.W.W.W.W.v.W.W.D.M.W.M.M.n.M.M.g.h.h.g.g.o.o.O.o.o.o.o.o.o.o.M.H.).W.).W.W.W.W.W.W.).).).).).",
"H.W.W.F.oXOXOX+XOXz.o.o.o.o.g.M.M.M.M.M.M.M.M.M.M.W.W.W.W.).W.W.v.W.W.W.M.M.M.M.M.g.h.g.g.g.o.o.o.o.o.o.o.o.o.o.M.L.W.W.L.W.W.W.W.W.W.).|.|.|.).",
"D.W.W.L.OXOXOXOXOXv.o.o.o.o.g.M.M.M.M.M.M.M.M.M.M.W.).).).[.P.v.W.v.M.H.M.M.M.M.M.g.g.g.g.g.g.o.o.o.o.o.g.g.g.o.M.L.W.W.L.W.W.W.W.W.W.).).).).).",
"v.M.M.H.).).).).).g.o.o.o.o.g.n.n.g.g.g.g.g.g.g.n.M.H.H.H.).H.M.W.W.M.v.n.n.n.n.n.n.n.n.n.g.M.M.M.M.M.M.M.M.M.M.H.H.H.H.H.H.W.).).).W.).).[.).).",
"M.M.n.n.g.g.g.g.o.o.O.O.O.O.o.o.o.o.o.o.o.o.o.o.o.M.M.H.h.H.h.M.W.H.M.h.g.g.g.g.g.M.M.M.M.M.W.).W.W.W.W.W.W.W.).H.h.h.h.h.M.).).).).W.[.[.[.[.[.",
"M.M.M.M.n.O.O.O.O.O.O.O.O.O.o.o.o.o.o.o.o.o.o.o.o.M.H.H.H.M.H.H.M.W.M.g.g.g.g.g.g.M.M.M.M.M.H.W.W.W.W.W.W.W.W.W.H.h.h.h.h.M.).).).).W.[.[.[.[.[.",
"M.M.M.M.n.O.O.O.O.O.O.O.O.O.o.o.o.o.o.o.o.o.o.o.g.H.v.M.h.H.M.M.A.M.M.n.g.g.g.g.n.M.M.M.M.M.H.W.W.W.W.W.W.W.W.W.H.h.h.h.h.M.).).).).W.[.[.[.[.[.",
"M.M.M.M.g.O.O.O.O.O.O.O.O.O.o.o.g.o.o.o.o.o.o.o.g.M.H.M.h.n.M.M.M.n.M.n.g.g.g.g.g.M.M.M.M.M.H.W.W.W.W.W.W.W.W.H.H.h.h.h.h.M.).).).).).[.[.[.[.[."
};
