/* XPM */
static char *_3846071a5b34feaa5e94786cc9f6184I1KKfOUq1D69aOwh[] = {
/* columns rows colors chars-per-pixel */
"72 72 182 2 ",
"   c None",
".  c #000000",
"X  c #0A0906",
"o  c #0B0B0B",
"O  c #080708",
"+  c #110F0D",
"@  c #12120D",
"#  c #121006",
"$  c #151414",
"%  c #1B1A1A",
"&  c #1D1A13",
"*  c #231D16",
"=  c #1F211C",
"-  c #332C0E",
";  c #23221E",
":  c #2B251C",
">  c #2A291E",
",  c #322C11",
"<  c #322818",
"1  c #3F391E",
"2  c #37331E",
"3  c #2D270C",
"4  c #222222",
"5  c #2C2A24",
"6  c #2C2B2B",
"7  c #2A2420",
"8  c #322E24",
"9  c #3F3921",
"0  c #31302D",
"q  c #38362A",
"w  c #343433",
"e  c #3C3A35",
"r  c #3A3A3A",
"t  c #56390E",
"y  c #453E1E",
"u  c #533D1B",
"i  c #5C3C1A",
"p  c #403921",
"a  c #413F39",
"s  c #4F461A",
"d  c #50471B",
"f  c #564A1B",
"g  c #5C521C",
"h  c #69440F",
"j  c #774D10",
"k  c #60551A",
"l  c #78511B",
"z  c #774C09",
"x  c #766109",
"c  c #7A6614",
"v  c #4C4838",
"b  c #5E583A",
"n  c #514929",
"m  c #695B3B",
"M  c #736639",
"N  c #514D40",
"B  c #5E5B49",
"V  c #505050",
"C  c #635D46",
"Z  c #756E51",
"A  c #7B7353",
"S  c gray38",
"D  c #8D5113",
"F  c #8E6714",
"G  c #9B6111",
"H  c #867113",
"J  c #8E7916",
"K  c #867218",
"L  c #897318",
"P  c #8C7617",
"I  c #937B14",
"U  c #BD7A0E",
"Y  c #AA6B10",
"T  c #BD6810",
"R  c #A77211",
"E  c #8A5B29",
"W  c #906422",
"Q  c #8C7928",
"!  c #C3690F",
"~  c #EB7D08",
"^  c #F37E02",
"/  c #836F43",
"(  c #847D60",
")  c #9E8414",
"_  c #BD9B0F",
"`  c #A68A13",
"'  c #AD8F10",
"]  c #B59611",
"[  c #A7880F",
"{  c #A18924",
"}  c #BCA12A",
"|  c #C28F0D",
" . c #C19E0E",
".. c #DE9E0B",
"X. c #D48610",
"o. c #E38E0C",
"O. c #F48403",
"+. c #F48A04",
"@. c #F88B03",
"#. c #E99208",
"$. c #F69403",
"%. c #FA9102",
"&. c #FE9C03",
"*. c #F89D07",
"=. c #E79A1E",
"-. c #CFAB0E",
";. c #DDAD0A",
":. c #DDB40B",
">. c #C9A810",
",. c #C6A514",
"<. c #E9A009",
"1. c #F7A405",
"2. c #FDA304",
"3. c #FBAC05",
"4. c #E7BD0A",
"5. c #E9BC09",
"6. c #FCB404",
"7. c #FDBC04",
"8. c #E8BF13",
"9. c #CBAC24",
"0. c #DEB921",
"q. c #C1A737",
"w. c #FCAC21",
"e. c #FCBB3A",
"r. c #EFC206",
"t. c #E9C00C",
"y. c #F4C607",
"u. c #FEC404",
"i. c #F7C806",
"p. c #FFCE02",
"a. c #F7C908",
"s. c #FECF09",
"d. c #FED00A",
"f. c #FDD114",
"g. c #FDD21B",
"h. c #F7CD21",
"j. c #FDD323",
"k. c #FED52C",
"l. c #FDCC35",
"z. c #FDD733",
"x. c #FED83C",
"c. c #8A8160",
"v. c #938866",
"b. c #A59B74",
"n. c #BBB07F",
"m. c #CBB240",
"M. c #E9AF45",
"N. c #C9B769",
"B. c #DDC459",
"V. c #FDDA44",
"C. c #FDDB49",
"Z. c #FDD347",
"A. c #FDDE55",
"S. c #FDDE5C",
"D. c #EAC942",
"F. c #FDE05F",
"G. c #E5CF65",
"H. c #FCCF6E",
"J. c #FCDF60",
"K. c #FDD77A",
"L. c #E9D276",
"P. c #FDE165",
"I. c #FDE26C",
"U. c #FDE374",
"Y. c #FEE57D",
"T. c #BEB281",
"R. c #CDC08D",
"E. c #ECDC9E",
"W. c #E7D99A",
"Q. c #EBD88D",
"!. c #FCE684",
"~. c #FEE885",
"^. c #FEE88E",
"/. c #FEE789",
"(. c #FDEA93",
"). c #FEEB9C",
"_. c #FBE496",
"`. c #EBDDA0",
"'. c #FEEDA4",
"]. c #FFEEAA",
"[. c #FFEDA9",
"{. c #F7E5A5",
/* pixels */
"                                                                                                                                                ",
"                                                                                                                                                ",
"                                                                                                                                                ",
"                                                                                                                                                ",
"                                                                                                                                                ",
"                                                                                                                                                ",
"                                                                                                                                                ",
"                                                                                                                                                ",
"                                                                                                                                                ",
"                                                                                                                                                ",
"                                                                                                                                                ",
"                                                                                                                                                ",
"                                                                                                                                                ",
"                                                                                                                                                ",
"                                                                                                                                                ",
"                                                                                                                                                ",
"                                                                                                                                                ",
"                                                                . . . . . . . .                                                                 ",
"                                                        . . . . . . . . . . . . . . . .                                                         ",
"                                                      . . . $ S ; : 5 0 0 : : * e $ . . .                                                       ",
"                                                  . . o % 6 w e o.M.E.`.`.=.#.#.W w 6 % o .                                                     ",
"                                                . . o , d d d f 1.e.~.).].e.w.3.R u u u , X . .                                                 ",
"                                              . . o 2 d.p.p.p.p.p.p.p.I.].].Y.s.6.&.&.&.&.G O . .                                               ",
"                                            . . 0 { ] p.p.p.p.p.p.p.p.k.C.).).I.l.7.7.7.7...Y 8 . .                                             ",
"                                          . . w 5 :.p.s.p.p.p.p.p.p.p.p.p.(.'.].S.s.p.p.p.7.&.l $ . .                                           ",
"                                          . $ { :.i.f.(.C.p.p.p.p.p.p.p.p.g.C.'.).(.k.p.p.p.u.<.X.& . .                                         ",
"                                        . % 2 ] p.p.f.(.C.p.p.p.p.p.p.p.p.p.k.(.'.].V.g.p.p.p.6.*.u + .                                         ",
"                                      . . , p.p.p.p.p.p.p.p.p.p.p.p.p.p.p.p.p.p.A.].].(.f.p.p.p.p.2.z . .                                       ",
"                                      . o s p.p.p.p.p.p.p.p.p.i.P K K K K K K K q.A.(.'.I.x.p.p.p.2.U O .                                       ",
"                                    . . 4 s p.p.p.p.p.p.p.p.p.a.> 4 4 4 4 4 4 4 J p.Y.].].I.p.p.p.2.U $ . .                                     ",
"                                    . o w s p.p.p.p.p.p.p.p.c f ,.m.R.R.R.9.>.>.P d 9.x.).).!.z.p.2.U = . .                                     ",
"                                    . V r f p.p.p.p.p.p.i.i.f > y.V.'.'.].j.s.p.I 7 _ h.(.'.].C.s.2.U : 6 .                                     ",
"                                  . . ; W.!.p.p.p.p.p.p.P > T ~ &.6.s.U.].'.U.s.i.a.k y 4.C.].'.).g.7.*.t . .                                   ",
"                                  . . 7 E.(.C.g.p.p.p.p.L ; ! ^ %.2.7.Z.I.'.^.C.j.p.g 1 5.k.I.(.'.A.l.&.h . .                                   ",
"                                  . . 5 E.].].V.p.p.p.p.L ; ! ^ ^ +.&.7.p.(.].].S.p.g 1 5.p.p.U.].].K.&.j . .                                   ",
"                                  . . 8 D.V.V.S.I.f.p.p.L 4 ! ^ 3.6.7.u.p.x.J.'.^.I.b 1 5.p.p.k.C.)._.H./ . .                                   ",
"                                  . . > 5.p.p.I.'.j.p.p.L 4 ! O.p.p.p.p.p.p.z.'.].].B 9 5.p.p.p.s.(.].].( . .                                   ",
"                                  . . 5 Q.U.p.f.g.!.~.p.L 4 ! ^ O.$.2.2.2.p.s.g.P.].B 9 5.p.p.p.p.g.C.'.A . .                                   ",
"                                  . . ; L.J.p.p.p.I.U.z.Q 4 ! ^ O.@.%.2.3.6.7.p.V.Y.b 9 5.p.p.p.p.p.j.K.m . .                                   ",
"                                  . . & t.p.p.p.p.p.g.'.c.; ! ^ &.%.^ 3.p.+.$.p.p.s.g p 5.p.p.p.p.p.u.*.t . .                                   ",
"                                    . 0 Q ` p.p.p.p.s.A.N.v.E D +.O.^ $.1.O.+.1.| J J ) y.p.p.p.p.p.;.F : .                                     ",
"                                    . o w d p.p.p.p.p.p.F.].N 7 ~ ^ ^ ^ ^ ^ ^ ^ D 4  .p.p.p.p.p.p.p._ ; . .                                     ",
"                                    . . 4 v Y.z.p.p.p.p.g.z.N.T.i i i i i i i i F  .r.p.p.p.p.p.p.p._ $ . .                                     ",
"                                      . O v ].V.p.p.p.p.p.p.U._.v e 9 9 p 9 9 9 ) p.p.p.p.p.p.p.p.p._ O .                                       ",
"                                      . . 8 ].V.p.p.p.p.p.p.f.g.W.G.4.4.5.5.5.5.y.p.p.p.p.p.p.p.p.p.x . .                                       ",
"                                        . @ b.B.C.d.p.p.p.p.p.p.P.S.C.g.p.p.p.p.p.p.p.p.p.p.p.p.i.' # .                                         ",
"                                          . o b.'.j.p.p.p.p.p.p.p.C.].C.p.p.p.p.p.p.p.p.p.p.p.p.y.# . .                                         ",
"                                          . . a Z 8.p.p.p.p.p.p.p.g.V.J.I.f.p.p.p.p.p.p.p.p.p.` - . .                                           ",
"                                            . . $ -.i.s.s.s.p.p.p.p.p.I.'.j.s.p.p.p.p.p.p.p.r.3 . .                                             ",
"                                              . . @ n (.(.^.j.p.p.p.p.f.g.!.I.p.p.p.p.p.p.[ X . .                                               ",
"                                                . . X Z n.T.}  .z.j.p.p.p.(./.x.0._ _ _ x X . .                                                 ",
"                                                  . . . X % 4 6 {.I.p.p.p.(.].].v.4 % o . .                                                     ",
"                                                      . . . o r C M c H H A Z C e o . . .                                                       ",
"                                                        . . . . . . . . . . . . . . . .                                                         ",
"                                                                . . . . . . . .                                                                 ",
"                                                                                                                                                ",
"                                                                                                                                                ",
"                                                                                                                                                ",
"                                                                                                                                                ",
"                                                                                                                                                ",
"                                                                                                                                                ",
"                                                                                                                                                ",
"                                                                                                                                                ",
"                                                                                                                                                ",
"                                                                                                                                                ",
"                                                                                                                                                ",
"                                                                                                                                                ",
"                                                                                                                                                ",
"                                                                                                                                                ",
"                                                                                                                                                ",
"                                                                                                                                                ",
"                                                                                                                                                "
};
