/* XPM */
static char *_56adab0ea8d4ff9c51ebeb3641832e8lMPe86L8jomuamNb[] = {
/* columns rows colors chars-per-pixel */
"72 72 186 2 ",
"   c #6EBCF3",
".  c #72BDF3",
"X  c #78C5EE",
"o  c #74C1F5",
"O  c #7BC4F4",
"+  c #7ECAF6",
"@  c #76C5FB",
"#  c #79C7FB",
"$  c #77C8FE",
"%  c #7ECDFE",
"&  c #7ED0FF",
"*  c #82CCF6",
"=  c #8ACEF5",
"-  c #82CDFE",
";  c #84CCFD",
":  c #84CDFD",
">  c #85CFFC",
",  c #84CEFD",
"<  c #85CEFD",
"1  c #84CFFD",
"2  c #85CFFD",
"3  c #86CFFC",
"4  c #84CEFE",
"5  c #85CEFE",
"6  c #85CFFE",
"7  c #84CEFF",
"8  c #84CFFF",
"9  c #86CFFE",
"0  c #82CEFD",
"q  c #88CDFA",
"w  c #84D0F7",
"e  c #8CD1F7",
"r  c #83D1FB",
"t  c #85D0FA",
"y  c #84D0FB",
"u  c #84D1FB",
"i  c #86D1FA",
"p  c #86D1FB",
"a  c #83D0FC",
"s  c #83D1FC",
"d  c #83D0FD",
"f  c #83D0FE",
"g  c #83D1FE",
"h  c #82D1FF",
"j  c #83D1FF",
"k  c #81D2FF",
"l  c #82D2FF",
"z  c #85D0FC",
"x  c #84D1FC",
"c  c #85D1FC",
"v  c #84D0FD",
"b  c #85D0FD",
"n  c #84D1FD",
"m  c #85D1FD",
"M  c #87D1FC",
"N  c #86D0FD",
"B  c #86D1FD",
"V  c #87D1FD",
"C  c #84D2FD",
"Z  c #85D3FD",
"A  c #86D3FC",
"S  c #87D2FD",
"D  c #86D3FD",
"F  c #84D0FE",
"G  c #85D0FE",
"H  c #84D1FE",
"J  c #85D1FE",
"K  c #85D0FF",
"L  c #84D1FF",
"P  c #86D0FE",
"I  c #87D0FE",
"U  c #86D1FE",
"Y  c #85D2FE",
"T  c #84D2FF",
"R  c #85D2FF",
"E  c #86D2FE",
"W  c #87D2FE",
"Q  c #86D3FE",
"!  c #87D3FE",
"~  c #87D5FC",
"^  c #87D4FF",
"/  c #87D5FF",
"(  c #84D4FE",
")  c #85D1FE",
"_  c #89D3FB",
"`  c #8AD3FA",
"'  c #8BD3FA",
"]  c #8AD3FB",
"[  c #8CD3FA",
"{  c #8BD4FB",
"}  c #8CD4FB",
"|  c #8ED5FB",
" . c #8CD6FB",
".. c #88D3FC",
"X. c #89D2FD",
"o. c #88D3FD",
"O. c #89D3FD",
"+. c #8AD3FC",
"@. c #8BD3FC",
"#. c #8AD3FD",
"$. c #89D2FE",
"%. c #88D3FE",
"&. c #89D3FE",
"*. c #88D3FF",
"=. c #8AD3FE",
"-. c #8AD3FF",
";. c #8CD3FD",
":. c #8CD3FE",
">. c #8CD3FF",
",. c #88D4FC",
"<. c #89D4FC",
"1. c #88D5FD",
"2. c #89D5FD",
"3. c #8AD4FC",
"4. c #8BD4FC",
"5. c #8AD4FD",
"6. c #8BD4FD",
"7. c #8AD5FD",
"8. c #8BD5FD",
"9. c #8BD6FD",
"0. c #8BD7FD",
"q. c #89D4FE",
"w. c #88D5FE",
"e. c #89D5FE",
"r. c #88D4FF",
"t. c #88D5FF",
"y. c #89D5FF",
"u. c #8AD4FE",
"i. c #8BD4FE",
"p. c #8AD5FE",
"a. c #8BD5FE",
"s. c #8BD4FF",
"d. c #8AD5FF",
"f. c #8BD5FF",
"g. c #8BD6FE",
"h. c #8BD6FF",
"j. c #88D6FE",
"k. c #8CD4FC",
"l. c #8CD4FD",
"z. c #8CD5FD",
"x. c #8DD5FD",
"c. c #8ED5FC",
"v. c #8CD6FC",
"b. c #8CD6FD",
"n. c #8CD4FE",
"m. c #8DD4FE",
"M. c #8CD5FE",
"N. c #8DD5FE",
"B. c #8CD4FF",
"V. c #8CD5FF",
"C. c #8DD5FF",
"Z. c #8CD6FE",
"A. c #8DD6FF",
"S. c #8ED6FE",
"D. c #8BD5FE",
"F. c #8DD8FE",
"G. c #93D4F5",
"H. c #98D7F5",
"J. c #97D9F7",
"K. c #9BD8F7",
"L. c #92D6FD",
"P. c #95DCFD",
"I. c #96DCFD",
"U. c #96DDFE",
"Y. c #94D9FD",
"T. c #98DAFD",
"R. c #99DBFD",
"E. c #9ADBFD",
"W. c #99DAFE",
"Q. c #98DBFE",
"!. c #99DBFE",
"~. c #9ADAFE",
"^. c #9ADBFE",
"/. c #98DCFE",
"(. c #98DCFF",
"). c #99DDFF",
"_. c #9BDCFD",
"`. c #A3DEFD",
"'. c #ABDFFE",
"]. c #97E0FF",
"[. c #9BE0FE",
"{. c #A4E1FE",
"}. c #ABE3FE",
"|. c #B4E6FD",
" X c #B8E4FE",
".X c #B3E9FD",
/* pixels */
"#.#.#.#.n n n n n u.V. .V.V.i 0 - - - - > - - - > O + + O * + * X / j #.u.u./ u.u.u.u.u.u.<.U.!.!.!./.[ n j n n n n n n n n u.u.u.u.u.V.V.V.V.V.",
"#.#.#.#.n n n n n u.V. .V.V.i 0 - - - - > - - - + * - O - O + * + n j #.u.u.u.u.u.u.u.u.u._ U.!.!.!.!._ n j n n n n n n n n u.u.u.u.u.u.V.V.u.V.",
"#.#.#.#.n n n n n u.V.V.V.V.i 0 - - - - > - - 0 O - - - O - % * i j j n u.u.u.u.u.u.u.u.u.#.U.!.!.!./._ n j n n n n j n n n u.V.u.u.u.V.V.V.V.V.",
"#.#.#.#.n n n n n u.V.V.V.V.i 0 - - - - > > % + 0 O > > - - n n r j j n u.u.u.u.u.u.u.u.u.V.U./.!././._ n j n n n n n n n n u.u.u.u.u.V.V.V.V.V.",
"u.u.u.u.#.#.#.#.#.u.V.V.V.V.i 0 - - - - - O # % o # o % % % > n i n n u.u.u.V.V.V.u.u.u.u.V. . . .V.V.i - - - - n #.#.#.#.#.u.u.u.u.u.#.u.u.#.u.",
"u.u.u.u.V.V.V.V.V.V.V.:.u.u.> - - - - % o . # @ o o @ # $ $ n #.<.<.<.u.V.V.V.V.V.u.u.u.:.V.> > > > n % % % % % j V.V.V.V.V.u.u.u.u.u.i j j j n ",
"u.u.u.u.u.u.u.u.u.u.u.:.u.u.> - - - - % @ . @ # o @ % $ % $ n n ~ u.u.u.V.V.V.V.V.u.u.u.:.V.i n > > n % % % % % j V.V.V.V.V.u.u.u.u.u.n n n n j ",
"V.u.u.u.u.V.V.V.V.V.V.:.u.u.> - - - - % # @   . . # # $ $ # n n u.u.u.u.V.V.V.V.V.u.u.u.:.V.i > > > - % % % % % j u.V.V.V.V.u.u.u.u.V.n n n n n ",
"u.#.u.u.V.V.V.V.V. .u.u.u.u.n - % - - - # # @   $ # $ $ # # n #._ u.#.u.V.V.V.V.V. .V.V.V.V.> n > > - - % % % % r u.V.V.u.V.u.u.u.u.V.> n n n n ",
"u.u.V.u.#.#.#.#.#.#.#.n n n - % % - % % * * * * + e = = = = [ V.u.V.V.u.V.V.u.V.V.L.L.L.L.F.0 - - - - % % % % % r u.V.V.u.u.<.u.u.u.u.n n n n n ",
"V.V.V.u.0 % % % % % % % % % % % % % % * U./.!.E.E..X|.|..X.XY.Y.Y.Y.Y.V.u.u.u.u. ././././.].* % % % % % % % - % j ~ u.u.u.u.i n #.n n n n n n n ",
"u.u.u.u.% % % % % % % % % % % % % % % * !.!.!.!.E..X|.|.|..XH.L.V.L.L.V.u.u.u.u. ./././._./.* % % % % % % % % - j / / / / n n n n n n n n n n > ",
"u.u.u.u.% % % % % % % % % % % % % % % > /.!.!.!.K.|.|.|.|..XH.L.L.L.L.V.u.u.u.u. ./././._./.0 % % % % % % % % % j / / / / / n n n n n n n n n n ",
"u.u.V.u.% % % % % % % % % % % % % % % > /.!.!.!.K.|.|.|..X.XH.Y.L.L.L.V.u.u.u.V. ././._._./.0 - % % % % % % % % j / / / / / n n n n n n n n n j ",
"u.u.V.u.% % % % % - - % - 0 0 0 % 0 * * Y.Y.Y.Y.!.}..X}.}.}.Y.Y.F.L.L. .<.u.:.:. .U.U././.U.0 & % % % - - % % - j / / / / / n n n n n n n n n n ",
"n n n n % % % % % n u.u.u.u.Y.Y.Y.Y.Y.Y.L.L.L.L.L.G.G.G.G.G. .V.0.V.V.Y./././.U.U.* 0 0 * 0 % % % % % j j j j j n u.u.u.u.u.u.u.u.u.u.u.u.u.u.u.",
"n n n j % % % % - / u.u.u.#.L.!.!.!.!.!.L.L.L.L.Y. .u.u.V.V.V.u.0.u.V.P._._._./.Y.- % % - & % % % % % j n n n n #.#.#.#.#.u.u.u.u.#.u.V.u.u.V.V.",
"n n n n % % % % % / u.u.u.u.Y.!.!.!.!.!.L.L.L.L.L.V.u.u.V.V.u.0.0.0. .Y._._./._.U.% % % % % % % & % % j j n n n n u.u.u.u.#.u.u.u.u.u.V.V.V.V.V.",
"n n j n % % % % % / u.u.u.u.Y.!.!.!.!.Y.L.L.L.L.L.V.u.u.V.V.V.u.0.F.V.Y._._././.U.% % % % % - - % % % j n n n n n u.u.u.u.#.u.u.u.u.u.V.V.V.V.V.",
"j j j n % % % % % / u.u.u.u.Y.!.!.!./.Y.L.Y.Y.Y.L.V.u.u.u.V.V.u.u.V.V.Y././././.U.% % % % % - - % % - j n n n n n u.u.u.u.#.u.u.u.u.u.V.V.V.V.V.",
"% - - - % % % % % j n n n i V.L.L.L.Y.L.V.V.V.V.V.V.V.V.V.V.V.V.u.V.V.V. .V.V.V.u.% % % - - #.#.#.#.#.#.u.u.u.#.u.u.u.u.u.V.Y.Y.F.Y.Y.V.V.V.V.V.",
"% % % % % % % % % j n n j n V.L.L.L.L.L.V.V.V.V.V.V.V.V.V.V.V.V.V.V.V.u.:.u.:.:.#.% % % - - u.#.u.u.u.u.u.u.u.u.u.u.u.u.u.V.Y.Y.Y.Y.Y.V.V.V.V.V.",
"% % % % % % % % % - n n j n V.L.L.L.L.L.V.V.V.V.V.V.V.V.V.V.V.V.V.V.V.V.u.u.u.V.#.- % % - - u.#.#.u.u.u.V.V.V.u.u.u.u.u.u.V.Y.Y.Y.P.Y. .V.V.V.V.",
"% % % % % % % % % j n n n n V.L.L.L.L.V.V.V.V.V.V.V.u.V.V.V.V.V.V.V.V.V.u.u.u.V.#.% % % - - u.u.u.u.u.#.u.u.u.u.u.u.u.u.u.V.Y.P.Y.Y.Y. .V.V.V.V.",
"% % % % % % % % % - j n > > V.Y.L.Y.Y.Y.V.V.V.V.V.u.u.V.V.V.V.V.V.V.V.V.u.u.u.u.n % % % - 0 u.u.#.#.u.#.V.V.u.u.u.:._ V.V.V.P.Y.Y.Y.Y.V.V.V.V.V.",
"- - - j - - - - - n #.#.#.#.V.V.V.V.V.V.u.u.u.#.u.u.u.u.#.#.u.u.u.u.u.n n #.#.n n j j j - 0 u.V.V.V.V.Y.L.Y.Y.Y.Y.L.L.= G.= e  .Y.Y.F.u.#.#.#.n ",
"- - - - n n n n n u.:.V.V.u.u.u.u.V.#.u.#.#.#.#.u.n n n n n n n n n n n n n n n j j j j j n V.V.V.V.V.Y./././.!.!.!.G.E.J.Y.e e L.V.V.i n n j n ",
"- % % - n > > > > #.:.:.:.u.u.u.u.u.u.#.#.#.#.#.#.n n n n n n n n n n n n n n j j j j j j n V.V.V.V.L.Y.!.!.!.!.!.!.J.G.E.E.e = L.V.V.n j n n n ",
"% - - 0 n > > > > #.:.:.u.u.u.u.u.u.u.#.#.#.#.#.#.n n n n n n n n n n n n n n j j j j j j n V.L.V.V.L.Y.!.!.!./.!./.G.J.J.G.e = V.V.V.n n n n n ",
"% % % - > > > > > #.:.u.u.u.u.u.u.u.u.u.#.#.#.#.#.n n n n n n n n n n n n n j j j j j j j i u.V.V.V.L.Y.!.!.!./.!./.Y.G.Y.G.=  .V.V.V.n n n n n ",
"- - - 0 _ #._ _ #.#.u.u.#.:.:.V.V.V.V.V.:.#.#.#.#.n n n n n n n n n n #.n n n n n n n n n i F.V.L.L.L./._._._.E.Y.Y.Y.G.e G.[ V.V.V.V.n j j j j ",
"- j - > V.L.L.L.V.V._ #.#.#.V.V.V.Y.V.V.#.V.V.u.u.n n n n n n n n n n u.V.V.V.V.u.u.V.V.#.#.Y.Y.L.Y.G._.`.`.`.{.I.<._ [ [ [ V.V.u.u.u.- % - - % ",
"- - > > L.L.L.L.L.:.:.#.#.#.V.V.Y.V.V.V.:.V.V.V.u.n n n n n n n n n n #.V.V.V.V.V.u.:.:.#.[ Y.L.L.Y.G._.`.`.`.`.E.u.u.V.u.u.#.V.u.u.u.- % % % % ",
"- - > > L.L.L.L.L.:.#.#.#.#.V.Y.Y.V.V.V.:.V.u.u.u.n n n n n n n n n n #.V.V.V.u.V.u.u.u.u.u.Y.Y.L.Y.G._.{.`.`.`.!.#.u.u.u.u.u.u.u.u.u.- % % % % ",
"- - > > L.L.L.L.L.#.#.#.#.#.V.V.V.L.V.V.#.V.u.u.u.n n n n n n n n n n #.V.V.V.V.V.u.V.u.u.u.Y.Y.L.Y.G.`.{.`.`.`.!.#.u.u.u.u.u.u.u.u.u.- % % - % ",
"0 0 > * L.L.G.G.L._ _ _ _ _ V.V.Y.Y.V.V.#.V.u.u.u.n n n n n n n n n n #.V.u.u.V.V.#.:.#._ [ L.L.L.L.G._.{.`.`.`.!.#.u.u.u.u.u.u.V.V.u.- % - - % ",
"_._._.`..X.X.X|..X`.[._././.Y._ u.V.u.V.V.V.V.V.V.n n n n n n n n n n u.V.V.u.V.V./.Y.Y.!.!.{.`.`.`.`.`.`.`._.`.!.V.u.u.V.u.n > n n n - % % % % ",
"_._._.`.|. X X X|.`._._._._.Y.[ V.V.u.V.V.V.V.V.V.n n n n n n n n n n u.V.V.V.V.L./.!.!.!.E.`.`.`.`.`.`.`.`._.`.!.V.u.:.V.u.n j j j j % % % % % ",
"`._._.`..X|.|.|..X`._._._._.Y. .u.u.u.V.V.V.V.V.V.n n n n n n n n j n #.V.V.u.V. ./.!.!.!.E.`.`.`.`.`.`.`.`.`.`.!.V.u.:.V.u.n j j n j % % % % % ",
"`._._.`..X|.|.|..X`._._._._.L.:.u.u.u.u.u.V.V.V.u.n n n n n n n n n n <.u.u.u.u.V.Y./.!.!.!.`.`.`.`.`.`.`.`.`.`.Y.u.u.:.#.#.n n n n n - % % % % ",
"`.`._.`..X|..X.X.X`._._._.[.Y.V.u.u.V.u.u.u.u.V.u.n n n n n n n n n n _ u.u.V.V.L./.!.!.!.E.`.`.`.`.`.`.`.`.`.[.U.u.u.V.u.#.n n n n n - % % % % ",
"`.`.{.`.K.E.E.E.K.G.V.L.L.L. .V.V.u.V.#.#.n n #.#.n n n n n n n n n i  .Y.Y.Y.!.E.{.{.{.{.}.}.}.'.}.}.E.Y.Y.Y.Y. ./ n n n n - - - % % % % % % % ",
"'.'.{.{.L.L.L.V.V.V.F.V.V.V.V.V.u.u.u.u.n n n n n n n n n n n n n n n  .!.!.!.!.K.}.}.}.}.}.}.}.}.}.}.Y.L.V.L.L.u.n j n n j % % % % % % % % % % ",
"'.'.{.{.G.V.V.V.V.V.V.V.V.V.u.V.u.u.u.u.n n n n n n n n n n n n n j n L.!.!.!.!.K.}.}.}.}.}.}.}.}.}.}.E.L.V.L.F.u.n n n n - % % % % % % % % % % ",
"{.{.{.{.L.V.V.V.V.V.V.V.V.V.u.u.u.u.u.u.n n n n n n n n n n n n n j n V./.!.!.!.K.}.}.}.}.}.}.}.}.}.}.G.V.F.V.V.u.n n n n - % % % % % % % % % % ",
"{.{.{.{.L.V.F.V.V.V.V.V.V.V.u.u.u.u.u.u.n n n n n n n n n n n i i j i V./.!.!.!.K.}.}.}.}.}.}.}.}.}.}.Y.F.F.F.F.u.n n n n j % % % % % % % % % % ",
"E.E.E./.L.V.V.V.V.V.u.V.V.u.u.u.u.u.u.u.n n n n n n n n n n V.V. .V. .Y.!.!.!.!.K.{.{.`.{.{.K.K.K.K.K.L.u.u.u.u.n j j j j j % % % % % j j j j r ",
"#._  .:.V.V.V.V.V.u.u.V.u.u.u./ / / / / n n n n n n n n n n Y././././.!.!.!.!.!.!._._.K._._.[ _ <. ._ i j j n n j j j j j j % % % % % u.u.u.u.u.",
"u.u.u.u.u.V.V.V.u.u.u.u.u.u.0./ / / / / n n n n n n n n n n Y.!.!.!.!.!.!.!.!.!.!._._._._./.[ #.u.V.u.n j j n j j & & & & & % % % % 0 u.#.#.#.u.",
"u.u.u.u.V.V.V.V.V.u.u.u.u.u.u./ / / / / n n n n n n n n n 0 Y./.!.!.!.!.!.!.!.Y.!._._._._./.[ _ u.u.u.n n j j j j j j j & & & % % % - u.u.#.u.u.",
"u.u.u.u.V.V.V.V.V.u.u.u.u.u.u.u.u.~ ~ / n n n n n n n n n 0 Y.!.!.!.!.!.Y.Y.Y.!.!._._._._./. .<.u.V.u.n n j j j j j j j k & % % % % - u./ n / u.",
"u.u.u.u.u.V.V.V.V.u.u.u.u.u.V. . . . .<.#.n n n n n n n n i Y.Y.!.!.!.Y.Y.Y.Y.Y.!._.!.!.!./.:.u.u.u.u.n j j j j j j & j k & % % % % - u.u.u.u.u.",
"V.V.V.V.u.u.u.u.u.u.u.u.u.u.Y./._._._./.:.u.u.u.u.u.u.u.u.u.Y.Y.Y.Y.Y.Y.L.L.L.L.L.L.L.L.L.V.> - - - - % % % % % % & & & & & - - - - - u.V.V.V.:.",
"V.V.V.V.u.u.u.u.u.u.u.u.u.u.Y._._.`._.!.:.u.u.u.u.u.u.V.u.#.Y.Y.Y.Y.Y.Y.L.L.L.L.L.L.L.L.L.V.> - j % j % % % % % % & & & & & - > - - > :.:.:.:.:.",
"V.V.V.V.u.u.u.u.u.u.u.u.u.#.Y._.K.K._./.:.u.u.u.u.u.V.V.u.#.Y.Y.Y.Y.Y.Y.L.L.L.L.L.L.L.L.V.V.0 - & & j % % % % % % & & & & j - > - - > V.u.u.u.:.",
"V.V.V.V.#.:.#.u.u.u.u.u.u.u.Y.!._._._.!.V.V.u.u.V.u.V.V.u.<.F.Y.Y.Y.Y.L.L.L.L.Y.L.L.L.V.V.V.> - - - - % % % % % & & & & & & j - - - > u.u.:.V.#.",
"u.u.u.V.#.u.u.u.#.V. .V.V. .G.!./.!./.Y. .u.V.u.u. . . . . .F.Y.Y.Y.Y.L.V.L.L.Y.L.Y.V.:.V.u.- - j - % % % % % % % r j j r r 0 - n > > u.V.V.V._ ",
"i n n #.n n i n > Y.!._._._.G.G.[  .[ V.u.V.V.V.F.].]./././.L.V.V.V.V.#.#._ #._ #.> > 0 0 0 - - - % % % & & & % / 0.F.F.0.0.u.u.V.u.V.V.V.V.V.[ ",
"n j n n > j n > > Y._._._._.G.:.u.u.u.V.V.V.V.V. .].]._._.].L.V.u.u.u.#.n n #.n n 0 j % % % - - % % % & & & & % ~ F.F.F.F.0.u.u.V.V.V.V.V.V.V.[ ",
"n j n n > > j > q Y._.`._._.G.:.u.u.u.V.V.V.V.V. .]._._._.[.F.V.u.u.u.#.u.#.#.u.n n j % % % % % % % % & & & & & ~ F.L.V.F.F.u.u.u.u.V.V.L.V.V.[ ",
"n j n n > > n > q Y._._._._.G.:.V.u.u.u.u.u.u.V. .]._._./.].F.u.u.u.V.V.i n #.n j - j % % % % % % % % & & & & & ~ V.L.V.F.F.u.u.u.u.V.V.L.V.V.[ ",
"n j j n q q > > * E./._._._.Y.:.V.#.u.V.V.V.V.u.F.].[._.].].F.u.u.V.F.u.n n i n j - % & % % % % % % % % & & & & n F.F.F.F.F.F.V.u.V.V.V.L.L.L.G.",
"n n / _ Y.Y.Y.Y.Y.e _ _ _ _ _ #.n n n n #.#.#.n _ Y.Y.L.Y.F.<.#.<.u.u.u.u.i u.n n - - - - - % % % % % % % % % % i  .u.u.#.V.u.u.u.V.u.V.V.V.V.L.",
"u.u.u.[ /._._._./.> % % - - - n j n n n n n n n n V.V.V.V.u._ u.u.#.u.n / u.n n n - - - - - % % % % % % % % % % n u.V.V.V.V.u.u.u.u.u.V.V.V.V.V.",
"u.u.u.[ !._._.K._.i % % % % - n n n n n n n n n n u.u.u.u.u.i u.u._ #.u.n n j n n - > > - - % % & % % % % % % % n #.V.u.V.u.u.u.u.u.u.V.V.V.V.V.",
"#.u.u.[ /._._.`._.w % % % % - n n n n n n n n n n u.u.u.0.V.u.u.i u.u.u.n n n n n - > - - - % % % % % % % % % % n :.u.u.:.u.u.u.u.u.u.V.L.L.L.V.",
"_ u.u.:._._._._._.i % % % % - n n n n n n n n n n u.V.V.V.F.<.i u.i n #.n n n n n - - - - - - - % % % % - - - % n :.u.u.:.u.u.u.u.u.u.V.L.V.V.V.",
"i n n #.V.V.V.V.V.- % % % % - j j - - - - - - - j n #.#.#.V.#.n u.u.n i j j j j j j j j j > n n n n n n n n n n #.#.#.#.#.#.u.V.V.V.u.V.V.F.V.V.",
"n n j j - - - - % % & & & & % % % % % % % % % % % n n #.> #.> n u.#.n > - - - - - n n n n n u.V.u.u.u.u.u.u.u.V.#.> > > > n V.V.V.V.u.F.F.F.F.F.",
"n n n n j & & & & & & & & & % % % % % % % % % % % n #.#.#.n #.#.n u.n - - - - - - n n n n n #.u.u.u.u.u.u.u.u.u.#.> > > > n V.V.V.V.u.F.F.F.F.F.",
"n n n n j & & & & & & & & & % % % % % % % % % % - #.i n > #.n n / n n j - - - - j n n n n n #.u.u.u.u.u.u.u.u.u.#.> > > > n V.V.V.V.u.F.F.F.F.F.",
"n n n n - & & & & & & & & & % % - % % % % % % % - n #.n > j n n n j n j - - - - - n n n n n #.u.u.u.u.u.u.u.u.#.#.> > > > n V.V.V.V.V.F.F.F.F.F."
};
