/* XPM */
static char *_2a7753e66d647a7a42e617952b6ce8bdJz94MIQaRw06IQ8[] = {
/* columns rows colors chars-per-pixel */
"72 72 185 2 ",
"   c #0D5556",
".  c #0D5A5B",
"X  c #0E5F60",
"o  c #0F6465",
"O  c #0F6768",
"+  c #106768",
"@  c #106B6C",
"#  c #126F70",
"$  c #117374",
"%  c #1B7175",
"&  c #147678",
"*  c #1B767A",
"=  c #137B7C",
"-  c #1B787D",
";  c #207178",
":  c #137F80",
">  c #247C85",
",  c #148284",
"<  c #158B8D",
"1  c #148789",
"2  c #158F91",
"3  c #169495",
"4  c #179798",
"5  c #179A9C",
"6  c #189E9F",
"7  c #268088",
"8  c #2C838A",
"9  c #278690",
"0  c #2F8792",
"q  c #189FA1",
"w  c #2B9BA0",
"e  c #3C92A1",
"r  c #3E9AAC",
"t  c #19A3A5",
"y  c #19A7A9",
"u  c #1AABAC",
"i  c #1AAEB0",
"p  c #1BB3B4",
"a  c #1BB7B9",
"s  c #1CBABC",
"d  c #23A5AB",
"f  c #21A9AE",
"g  c #28B4BA",
"h  c #4499AA",
"j  c #429DB2",
"k  c #4DA3BA",
"l  c #1DBFC1",
"z  c #2CBAC1",
"x  c #3ABECF",
"c  c #38BAC7",
"v  c #4EABC4",
"b  c #53ACC9",
"n  c #48BDCF",
"m  c #5CB3CE",
"M  c #5DBED4",
"N  c #64BDDD",
"B  c #6ABAD7",
"V  c #74BCD8",
"C  c #6EBDEA",
"Z  c #6DBBF2",
"A  c #73BDF3",
"S  c #1DC3C5",
"D  c #1EC7C9",
"F  c #1ECBCD",
"G  c #1FCED0",
"H  c #1FD1D3",
"J  c #31C8CF",
"K  c #24CDD1",
"L  c #20D4D6",
"P  c #20D7D9",
"I  c #22DBDD",
"U  c #2ADDDF",
"Y  c #29D7DC",
"T  c #35D7DD",
"R  c #36CAD8",
"E  c #2DDEE0",
"W  c #34DFE1",
"Q  c #3ADEE2",
"!  c #3BE0E2",
"~  c #5AC4DD",
"^  c #79C0DE",
"/  c #5DCEED",
"(  c #5CC5E1",
")  c #5DD1ED",
"_  c #6BC4EB",
"`  c #64CEEF",
"'  c #68C5E9",
"]  c #73CDE4",
"[  c #72CDED",
"{  c #7CC9ED",
"}  c #76C5EB",
"|  c #6CD1EF",
" . c #72D6ED",
".. c #65CCF1",
"X. c #6DCCF0",
"o. c #74C2F4",
"O. c #7AC4F3",
"+. c #76CBF5",
"@. c #7CCCF5",
"#. c #76C5FB",
"$. c #79C7FB",
"%. c #76CAFA",
"&. c #7DCDFD",
"*. c #6FD0F1",
"=. c #74D1F6",
"-. c #7DD1F6",
";. c #7ED0FE",
":. c #44E1E3",
">. c #4AE2E4",
",. c #55E4E6",
"<. c #5BE5E7",
"1. c #60E6E7",
"2. c #64E6E8",
"3. c #69E7E9",
"4. c #6DE8E9",
"5. c #72E9EA",
"6. c #7AEAEB",
"7. c #81C2D3",
"8. c #88CBE7",
"9. c #83CAE5",
"0. c #8DD2EF",
"q. c #9BD4EC",
"w. c #82CDF6",
"e. c #8ACEF5",
"r. c #85CEFD",
"t. c #82CEFD",
"y. c #88CDFA",
"u. c #86D1F3",
"i. c #8CD1F6",
"p. c #85D1FA",
"a. c #83D0FC",
"s. c #83D1FE",
"d. c #81D1FE",
"f. c #84D1FD",
"g. c #84D1FE",
"h. c #84D1FF",
"j. c #85D0FE",
"k. c #86D0FE",
"l. c #86D2FD",
"z. c #86D5FE",
"x. c #85D1FD",
"c. c #88D2FB",
"v. c #8AD3FA",
"b. c #8AD4FB",
"n. c #8DD6FB",
"m. c #89D3FD",
"M. c #8AD3FC",
"N. c #89D3FE",
"B. c #8AD3FE",
"V. c #8CD3FE",
"C. c #89D4FD",
"Z. c #8BD4FD",
"A. c #8AD5FD",
"S. c #89D5FE",
"D. c #8BD4FE",
"F. c #8BD4FF",
"G. c #8AD5FE",
"H. c #8BD6FE",
"J. c #8AD6FE",
"K. c #8CD5FD",
"L. c #8CD6FD",
"P. c #8CD5FE",
"I. c #8CD5FE",
"U. c #8DD6FE",
"Y. c #8BD4FD",
"T. c #8DD8FE",
"R. c #93D5F6",
"E. c #94D9F7",
"W. c #92D6FD",
"Q. c #94DAFD",
"!. c #99DBFD",
"~. c #99DBFE",
"^. c #98DCFF",
"/. c #9BDCFD",
"(. c #A0D7ED",
"). c #A6DCF3",
"_. c #A9DDF3",
"`. c #A3DCFB",
"'. c #96E0FF",
"]. c #9BE0FF",
"[. c #A4E1FE",
"{. c #ACE2FC",
"}. c #B4E6FD",
"|. c #B8E4FF",
" X c #B3E9FC",
/* pixels */
"M.M.M.M.f.f.f.f.f.G.I.n.I.I.p.t.t.t.t.t.r.t.t.t.t.O.O.O.O.w.@.w.} z.s.M.G.G.z.G.G.G.G.G.G.c.^.~.~.~.Q.n.f.s.f.f.f.f.f.f.f.f.G.G.G.G.G.I.I.I.I.G.",
"M.c.M.M.f.f.f.f.f.G.I.n.I.I.p.t.t.t.t.t.r.t.t.t.O.w.t.O.t.O.@.w.@.f.s.M.G.G.G.G.G.G.G.G.G.c.^.~.~.~.~.c.f.s.f.f.f.f.f.f.f.f.G.G.G.G.G.G.I.I.G.G.",
"M.c.M.M.f.f.s.f.f.G.I.I.I.I.p.t.t.t.t.t.r.t.t.t.O.t.t.t.O.t.&.@.a.s.s.f.G.G.G.G.G.G.G.G.G.M.^.~.~.~.^.c.f.s.f.f.f.f.t.f.f.f.G.I.G.G.G.I.G.I.I.I.",
"M.c.M.M.f.f.f.f.f.G.I.I.I.I.p.t.t.t.t.t.r.r.&.@.t.O.r.t.t.t.s.s.a.s.s.f.G.G.G.G.G.G.G.G.G.I.^.^.~.^.^.c.f.s.f.f.f.f.f.f.f.f.G.G.G.G.G.I.I.I.I.I.",
"G.M.G.G.M.M.M.M.c.G.I.I.I.I.p.t.t.t.t.t.t.O.$.&.o.$.o.$.&.&.r.f.f.f.f.G.G.G.I.I.I.G.G.G.G.I.I.n.n.I.I.p.t.&.t.t.f.M.M.M.f.M.G.G.G.G.G.M.G.G.M.G.",
"G.G.G.G.I.I.I.G.b.I.I.V.G.G.r.t.t.t.t.&.o.A $.#.o.o.#.$.$.$.f.M.G.G.p.G.I.I.I.I.I.G.G.G.V.I.r.r.r.r.f.&.&.&.&.&.s.I.I.I.b.I.G.G.G.G.G.p.s.s.s.f.",
"G.G.G.G.G.G.G.G.G.G.G.V.c.G.r.t.t.t.t.&.#.A #.$.o.#.&.$.&.$.f.z.z.G.c.G.I.I.b.I.I.G.G.G.V.I.r.r.t.r.f.&.&.&.&.&.s.I.I.I.G.I.G.G.M.G.G.f.f.f.f.s.",
"I.M.G.G.G.I.I.I.I.I.I.M.G.G.r.t.t.t.t.&.$.#.Z Z A $.$.$.$.$.f.f.G.G.G.G.I.b.I.I.I.G.G.G.V.I.r.r.r.t.t.&.&.&.&.&.s.G.I.I.I.I.G.M.G.G.I.f.f.f.f.f.",
"G.p.G.G.I.I.I.I.I.I.G.G.G.G.f.t.&.t.t.t.$.$.#.Z $.$.$.#.$.$.f.M.c.G.M.G.I.I.I.I.I.n.I.I.I.I.r.r.r.t.t.t.&.&.&.&.a.G.I.I.G.I.G.G.G.G.I.r.f.f.f.f.",
"G.c.I.G.M.M.M.M.M.M.M.f.f.f.t.&.&.t.&.&.w.w.w.w.@.i.e.e.e.e.n.B 0 h e e h k e e } R.R.R.W.T.t.t.t.t.t.&.&.&.&.&.a.G.I.I.G.G.G.G.G.G.G.f.f.f.f.f.",
"I.I.I.G.t.&.&.&.&.&.&.&.&.&.&.&.&.&.&.w.^.^.~././. X}.}. X XE.$ + + + + + @ @ @ 8 ^.^.^.^.'.w.&.&.&.&.&.&.&.t.&.s.c.G.G.G.G.p.f.f.f.f.f.f.f.f.f.",
"G.G.G.G.&.&.&.&.&.&.&.&.&.&.&.&.&.&.&.w.Q.~.~.~./.}.}._.).{.8.p s s s s a 3 < < < R.^.0.^.^.t.&.&.&.&.&.&.&.&.t.s.z.z.z.z.f.p.s.f.f.f.f.f.f.f.r.",
"G.G.G.G.&.&.&.&.&.&.&.&.&.&.&.&.&.&.&.r.Q.~.~.~./.}.}.@ O . , I E U U U I y 6 t 5 $ X O + ^.w.&.&.&.&.&.&.&.&.&.s.z.z.z.z.z.a.f.f.f.f.s.a.f.f.f.",
"G.G.I.G.&.&.&.&.&.&.&.&.&.&.&.&.&.&.&.r.Q.Q.~.~./.}.(.p s p l P I I I I I F S D D I I U T u.t.&.&.&.&.&.&.&.&.&.s.z.z.z.z.f.a.p.f.f.f.f.f.s.f.s.",
"G.G.I.z.&.&.&.&.&.&.&.&.t.t.t.t.&.&.w.w.Q.Q.Q.Q.~.o 3 I U I I I I I I I I I I I U <.4.4.3.t . &.;.&.&.t.t.&.&.&.s.z.f.z.z.f.p.p.f.f.f.f.f.f.f.f.",
"f.f.f.f.&.&.&.&.&.f.G.G.G.G.Q.Q.Q.Q.Q.Q.R.W.W.W.n.o 2 P I I I I I I I I I I I I I ! ! ! Q I R $.&.&.&.s.s.s.s.s.f.G.G.G.G.M.M.G.G.G.G.G.G.G.G.G.",
"f.r.f.s.&.&.&.&.t.z.G.G.G.M.W.~.~.~.~.~.R.W.W.+ O . < L I I I I I I I I I I I I I P L H P 1.6.t   &.&.s.f.s.f.f.f.M.M.M.M.G.G.G.G.M.G.I.G.G.I.I.",
"f.f.f.f.&.&.&.&.&.z.G.G.G.G.R.~.~.~.~.~.W.W.I.K H F H I I I I I I I I I I I P s s L I I I W ! I F &.&.s.s.f.f.f.f.G.G.G.G.M.G.G.G.G.M.I.I.I.I.I.",
"f.f.s.f.&.&.&.&.&.z.G.G.G.b.R.~.~.~.~.Q.W.. p 5.5.5.,.I P I I I I I I I I I P 6 4 G U I I L L <.6.p . s.f.f.f.f.f.G.G.G.G.M.G.G.G.G.p.I.I.I.I.I.",
"s.s.s.f.&.&.&.&.&.z.G.G.G.b.W.~.~.~.^.Q.W.6 S :.>.3.>.I P I I I I I I I I I P l s s S L I P P W :.P s @.f.f.f.f.f.G.G.G.G.M.G.G.G.b.b.I.I.I.I.I.",
"t.t.t.&.&.&.&.&.&.s.f.f.f.p.I.W.W.W.Q.W.I.Q I H W 3.,.P L I I I I I I I I I I U I t 3 F I P P H H ,.6.s O c.G.f.G.G.G.M.G.I.Q.Q.T.Q.Q.I.I.G.G.I.",
"&.&.&.&.&.&.&.&.&.s.f.f.s.f.I.W.W.W.W.W.p.Y L F I :.:.:.W I P I I I I I I I I I P t 4 I :.! ! ! ! <.3.p o M.G.G.G.G.G.G.G.I.Q.Q.Q.Q.Q.I.I.I.G.I.",
"&.&.&.&.&.&.&.&.&.t.f.f.s.f.I.W.W.W.W.+ 2 F F S F H W 3.,.I L I I I I I I I I I P q 4 :.5.3.3.3.1.3.3.p o I.I.G.G.G.G.G.G.b.Q.Q.Q.Q.Q.n.I.I.I.I.",
"&.&.&.&.&.&.&.&.&.&.f.f.f.f.I.W.W.W.W.+ 1 s l S F F I :.:.! W I P I I I I I I I I H H ! >.:.:.:.:.>.>.y O G.G.G.G.G.G.G.G.b.Q.Q.W.Q.Q.n.I.I.I.I.",
"&.&.&.&.&.&.&.&.&.t.s.f.r.r.b.Q.W.Q.Q.O = 6 i S D S F L W 3.<.I L I I I I I I P I <.3.E H P I I I I I 3   I.G.G.G.V.c.I.I.n.Q.Q.Q.Q.Q.I.I.I.I.I.",
"t.t.t.s.t.t.t.t.t.f.M.M.M.f.I.I.I.I.p., 1 4 i D D S F F I >.:.! W I I I I I I P I <.3.E L L H H H L H l p u.Q.Q.Q.W.R.e.R.e.i.n.T.I.T.G.M.G.M.f.",
"t.t.t.t.f.f.f.f.f.G.V.I.G.G.G.G.M.+ , t q 4 p F F D D S F L W 1.<.I L L L P I L P ,.3.W P H D F F S l :.6.s   ~.~.~.R./.R.E.i.i.I.I.I.p.f.f.f.a.",
"t.&.&.t.f.r.r.r.r.M.V.V.V.G.G.G.@.= < t q 5 y s l D D S F F I >.>.W W W W I I W W :.>.I H S a s s S F ! <.L y E.~.~.R.R././.i.e.I.I.I.f.s.f.f.f.",
"&.&.t.t.f.r.r.r.r.M.V.V.G.G.M.+ , 6 6 6 6 6 6 5 u D D D D S G P E 1.3.3.1.I L <.3.W P L D u 5 6 6 S I I L >.6.z . ^.i.E.R.R.i.e.I.I.I.f.s.f.f.f.",
"&.&.&.t.r.r.r.r.r.M.V.G.G.G.{ 1 4 p y 6 6 6 6 4 u D D D D S D F P :.>.>.:.W W :.:.I F S a y 4 4 5 S I P L ! 1.P t R.E.R.E.R.e.n.I.I.I.f.s.f.f.f.",
"t.&.t.t.c.M.c.c.p.M.G.G.M.o 4 F S D p 4 5 6 6 5 u F F D D D D D D D D F L <.3.P D F S y 6 q 6 4 4 S I I I I L :.4.J . E.i.R.n.I.I.I.I.f.s.s.s.s.",
"t.s.t.r.I.W.W.W.I.I.c.M.p., i P H H s t t 6 6 5 y s S S D D D D D F D s l ! :.S s D F y 5 6 6 t u F I I I P H ! 3.L , i.n.n.I.I.G.G.G.t.&.t.t.&.",
"t.t.r.r.W.W.W.W.R.V.c.@ q F G I I I H S p 4 5 6 t 6 u D D D S s S I L q 4 t t q t H I y 3 3 4 S I I I I I I I P P P I f > % + I.G.G.G.t.&.&.&.&.",
"t.t.r.r.W.W.W.W.W.V.r.: u L L I I I L D s t t 6 6 4 y D D D F P P I P i y 6 4 5 t H I s y y u F I I I I I P P I U I E s , , , p.G.G.G.t.&.&.&.&.",
"t.&.r.r.W.W.W.W.W.; d S G I I I I I H S S D a 6 6 5 u D D l P <.,.I P P H t 4 5 6 H I L L L L P I I I I I I P :.3.:.P L L L I g > % * O.&.&.t.&.",
"t.t.r.w.R.R.R.R.9., p H L I I I I I L D F F s q 6 5 y l S l P ,.,.E I I P u t t u H I U E U U I P I I I I P G W ,.:.I U U U E l = : 1 C &.t.t.&.",
"/././.`.}.}._.8 T 1.W P I I I I I I I I L D p 5 5 6 6 6 u S F I E <.<.I P L L L L P I >.3.1.<.W H P I P I s 5 t q I 3.1.3.>.L P H I <.Q - j &.&.",
"/././.`.}.|.q.O U 5.W P I I I I I I I I L F s t t 6 6 4 y S F L I <.,.U I U U U U I U >.<.<.,.W I I P I E l t 5 1 F ,.,.,.:.I I U ! 4.! @ O &.&.",
"/././.`.}.}._.O I 4.W P I I I I I I I I P I H S s 6 6 5 y S F I I I E ,.<.<.<.<.<.<.<.W I H F :.1.W H :.1.! I t @ 1 u u q H 1.<.<.<.3.W @ + &.&.",
"`././.`.}.}._.@ I 4.W P I I I I I I I I I I L F s t 6 6 y l D I I L I ,.<.<.<.<.<.<.,.U H S s ! <.W P >.3.:.U t O , 6 6 3 S <.,.,.,.<.E @ # &.&.",
"`.`././.{.7.w 4 W 3.W P I I I I I I I I I I I I H D a q q q u D F D G I U I I U U L G p t t t t u W 1.<.1.! I 6 O , t q 6 t u u u u i 6 @ > &.&.",
"`.`.[.[.V + 3 6 W 3.W P I I I I I I I I I I I I L F s 6 4 4 t l S S D L P L P L L D s t 3 5 6 3 4 U 1.<.<.! E y # , 6 6 6 5 4 4 4 4 4 < @ & &.&.",
"`.`.[.[.^ + 2 6 ! 3.W L P P P P I I I I I I L F D H i & = 6 t t u D F F F F D i t y t = @ 2 t 6 6 y u H E :.1.W L t @ , q 6 6 6 6 6 q 3 @ @ &.&.",
"{.{.[.[.^ & 3 6 W 1.W I I I I I I I I I I I H S S F y + & 5 6 4 6 l S S S S S q 4 5 4 = $ 3 y q q 4 3 s L :.3.:.E u o : 6 6 t q 6 6 q 3 @ @ &.&.",
"[.[.q.9.c F y 6 p a Q <.,.,.,.<.! L P P L H s y 4 , & + + $ $ & & = , t u y y t 6 = $ p G G H u 4 5 6 t y G W U U u + $ $ N +.%.4 6 q 3 @ @ &.&.",
"[.[.O @ D W p 6 4 < W 3.<.<.<.1.:.P I I L S p q , O + & & @ @ @ @ + @ 4 4 4 4 6 4 $ @ F W U I s 6 q 6 4 3 s L P U y + + . _ / $.5 6 q 3 @ # &.&.",
"/./.* @ S I u 6 6 q p s s s s s U <.<.<.U t t t 2 o 4 Q W S s S S D s = $ & & $ = p F H I P P ! >.S 4 6 t y i u p 2 O + @ v &.&.&.+.6 4 @ * t.a.",
"M.c.+ @ S U p 6 6 6 4 3 3 3 2 < L 4.1.3.E 3 4 t 2 . t 3.1.E U U U W P = @ @ @ + & G W I I P I ,.4.H 3 6 6 5 4 4 5 , $ # @ r &.&.&.&.6 3 @ * M.G.",
"G.G.+ @ a.d.n 4 6 6 6 6 6 6 6 6 p D S D p 4 4 6 < X 4 E :.,.:.I P I P s s s s a s L I P P :.,.:.W s 4 6 6 5 4 5 6 u S 4 + j &.&.&.$.6 3 @ # M.G.",
"G.G.+ + M.| [ 5 6 6 6 6 6 6 6 6 4 2 2 2 4 q q t 2 o < D E 3.<.I I I I U E E E E E I P P I ,.3.W G p 4 6 6 6 6 6 4 l ! a + j &.&.&.&.6 3 @ @ G.G.",
"G.G.@ @ G.p.p.c.~ 4 6 6 6 6 6 6 6 q 6 4 ( a.a.;.+.O = u D W ! >.>.I P I H H H H P P I :.>.P l P I a 4 5 4 X.&.X.4 s U i + $ 9 o.&.&.6 3 @ @ z.G.",
"G.G.@ @ c.G.-.*.@.4 6 6 6 6 6 6 6 q 5 4 @.X.` ) r.+ $ 3 u F E 3.<.I I I I I P I P P I <.3.s , S I a 4 4 4 ;.) &.4 s E i @ @ o b &.&.d 4 $ * G.G.",
"I.I.+ @ M.M.p.p.[ 5 q q q 6 6 6 5 4 ] W.w.*.p.a.M + = 5 t i S W ! :.>.>.>.>.>.>.>.>.:.:.W p 3 F U p 3 _ &.&.%.+.3 s E i @ @ O k t.t.t.G.c.M.I.c.",
"I.G.7 @ M.M.M.M.' 6 q q q 6 6 q 5 3 E. .[ *.f.4 , + = 6 q 3 t G I 1.3.3.3.3.3.3.3.3.1.W F u 4 F E p < &./ %.&.X.3 s U u + @ @ b t.t.r.V.V.V.V.n.",
"I.G.I.I.G.G.M.M.N = , , 3 t 5 6 ] /./.W.c.-.~ t < + = 6 t 4 u P I Q ! ! ! ! ! ! ! ! ! U P i 4 u s ..;.$.%.$.' x S H E u + N t.r.t.t.r.I.G.G.G.V.",
"I.G.I.I.M.c.M.M.m O @ + 1 y 6 4 E. .E.Q.u.4 6 t 3 + = t t 4 u I I P P P P P P P P P P I I i 3 4 4 &.` &.&.' 4 S E U ! p @ ;.s.t.t.t.r.G.M.V.G.M.",
"G.G.G.I.M.M.G.G.M.I.n.n.V , B R.~.W.^.Q.{ : , , = + $ , < 5 t a S P I P P I I P P I P S a S S y 4 &...&.&._ = 3 t q t +.a.a.t.t.r.r.p.G.I.I.G.c.",
"p.f.p.p.r.r.r.r.r.Q.~./.^.o u.i.i.n.c.c.B + @ @ @ # @ O = t t 4 t P I I I P P I I I P y 4 L Q s 5 &...%.&._ O + + + + T.J.J.G.G.I.G.I.I.I.I.I.n.",
"f.s.f.f.r.s.f.r.r.Q././././.E.V.G.G.G.G.G.G.G.I.n.^.]./.!., < 4 t P I I I -.-.E I I I y 4 t t < , &.%.&.;.;.;.&.c.T.n.T.n.T.G.G.G.G.I.I.I.I.I.n.",
"f.s.f.f.r.r.s.r.y.Q././././.E.n.M.M.M.G.G.G.G.c.n.]./.^./.@ & 5 i I U U Q +.+.Q H U U a 6 = O + + $.&.;.&.;.;.;.c.T.W.I.T.T.G.G.G.G.I.I.W.I.I.n.",
"f.s.f.f.r.r.f.r.y.Q././././.E.c.I.G.G.G.G.G.G.M.n.]./.~.^.].u., < y u y g a.t.;.=.c t 3 , +.&.$.&.&.&.;.;.&.;.;.c.I.W.I.T.T.G.G.G.G.I.I.W.I.I.n.",
"f.s.s.f.y.y.r.r.w.!.^././.^.Q.c.I.M.G.I.I.I.I.G.n.].].^.].].T.# + + + O @ p.t.+.+.j . @ # &.&.&.&.&.&.&.;.&.;.;.f.T.T.T.T.T.I.I.G.I.G.I.W.W.W.R.",
"f.f.z.c.Q.Q.Q.Q.E.i.c.c.c.c.c.M.f.f.f.f.M.M.f.f.p.T.W.W.W.T.b.p.p.p.p.p.G.p.f.=.&.t.&.&.s.s.&.&.&.&.&.&.&.&.&.&.p.n.G.G.M.I.G.b.G.I.G.I.I.I.I.W.",
"G.G.G.n.^./././.^.r.&.&.t.t.t.f.s.f.f.s.f.f.f.f.f.G.I.I.T.G.c.G.G.M.G.f.z.z.f.+.&.t.t.t.s.&.&.&.&.&.&.&.&.&.&.&.f.G.I.I.I.I.G.c.G.G.G.I.I.I.I.I.",
"G.G.G.n.~././././.a.&.&.&.&.t.s.s.f.f.f.s.f.f.f.f.G.G.G.G.G.p.G.G.c.f.G.s.f.s.;.s.t.t.r.t.t.&.&.;.&.&.&.&.&.&.&.f.M.M.G.I.G.M.M.G.G.G.I.I.I.I.I.",
"M.G.G.n.^././.`./.w.&.&.&.&.t.f.f.f.f.f.s.s.f.f.f.G.G.G.G.I.G.G.p.G.G.M.s.f.s.f.s.t.t.t.t.t.&.&.&.&.&.&.&.&.&.&.f.V.M.G.V.M.M.M.G.G.G.I.W.I.W.I.",
"c.G.G.c.^././././.w.&.&.&.&.t.f.f.s.f.f.s.f.f.f.p.G.I.I.I.n.b.p.G.p.f.M.f.f.s.s.s.t.t.t.t.t.t.&.&.&.&.&.t.t.t.&.f.V.M.G.V.G.M.M.G.G.G.I.I.I.I.I.",
"p.f.f.M.I.I.I.I.I.t.&.&.&.;.t.s.s.t.t.t.t.t.t.t.t.f.M.M.M.I.M.f.G.G.f.p.t.t.s.t.s.s.s.s.s.t.f.f.f.f.s.f.f.f.f.f.M.M.M.M.M.M.G.I.I.I.G.I.I.T.I.I.",
"f.s.s.s.t.t.t.&.&.&.;.;.;.;.&.&.&.&.&.&.&.&.&.&.&.f.f.f.r.M.r.f.G.M.f.r.t.t.t.t.t.f.f.f.f.f.G.I.G.G.G.G.G.M.G.I.M.r.r.r.r.p.I.I.I.I.G.T.T.T.T.T.",
"f.f.f.f.s.;.;.;.;.;.;.;.;.;.&.&.&.&.&.&.&.&.&.&.&.f.M.M.M.f.M.M.f.G.f.t.t.t.t.t.t.f.f.f.f.f.M.G.M.G.G.G.G.G.G.G.M.r.r.r.r.f.I.I.I.I.G.T.T.T.T.T.",
"f.f.f.f.s.;.;.;.;.;.;.;.;.;.&.&.&.&.&.&.&.&.&.&.t.M.p.f.r.M.f.f.z.f.f.s.t.t.t.t.&.f.f.f.f.f.M.G.G.G.G.G.G.G.G.G.M.r.r.r.r.f.I.I.I.I.p.T.T.T.T.T.",
"f.f.f.f.t.;.;.;.;.;.;.;.&.&.&.&.t.&.&.&.&.&.&.&.t.f.M.f.r.s.f.f.f.s.f.s.t.t.t.t.t.f.f.f.f.f.M.G.G.G.G.G.G.G.G.M.M.r.r.r.r.f.I.I.I.G.G.T.T.T.T.T."
};
