/* XPM */
static char *_819d668d3c44b41d14053b23c0889cbI1YKhzH4AZcPaWoS[] = {
/* columns rows colors chars-per-pixel */
"72 72 128 2 ",
"   c None",
".  c #000000",
"X  c #070809",
"o  c #080A0B",
"O  c #0C0F10",
"+  c #0E1113",
"@  c #151617",
"#  c #151A1C",
"$  c #1E1E1E",
"%  c #3D381D",
"&  c #181E22",
"*  c #1C2225",
"=  c #1D2529",
"-  c #20272C",
";  c #2D2D2D",
":  c #2E3026",
">  c #242F33",
",  c #253035",
"<  c #283437",
"1  c #283338",
"2  c #2C383E",
"3  c #313131",
"4  c #323638",
"5  c #3B3B3B",
"6  c #6F5507",
"7  c #705506",
"8  c #2F3B42",
"9  c #313C42",
"0  c #36454D",
"q  c #39484F",
"w  c #3D4D55",
"e  c #3F4F58",
"r  c #3F5058",
"t  c #444444",
"y  c #41484A",
"u  c #414F57",
"i  c #40525B",
"p  c #47595F",
"a  c #48595B",
"s  c #515151",
"d  c #5E5E5E",
"f  c #646A4F",
"g  c #686C4F",
"h  c #455761",
"j  c #465962",
"k  c #495B62",
"l  c #52646C",
"z  c #626262",
"x  c #656869",
"c  c #6D6D6C",
"v  c #6B6F71",
"b  c #64747C",
"n  c #68787F",
"m  c #717273",
"M  c gray47",
"N  c #8F6E06",
"B  c #8E6F08",
"V  c #8E7008",
"C  c #9A7707",
"Z  c #9A7807",
"A  c #8C7016",
"S  c #8B7018",
"D  c #96781B",
"F  c #826D2A",
"G  c #8D7B2D",
"H  c #847C3F",
"J  c #A6810B",
"K  c #A8840A",
"L  c #8A803D",
"P  c #948637",
"I  c #A28524",
"U  c #C89C07",
"Y  c #D6AD17",
"T  c #EDB908",
"R  c #F3BD06",
"E  c #F8BF04",
"W  c #F0BC08",
"Q  c #CAA324",
"!  c #F7C006",
"~  c #FCC201",
"^  c #F8C51F",
"/  c #F5C320",
"(  c #F8C620",
")  c #6D7C84",
"_  c #8E8E8E",
"`  c #808D92",
"'  c #909090",
"]  c #9A9A9A",
"[  c #949FA3",
"{  c gray66",
"}  c #ABB3B6",
"|  c #ADB6B8",
" . c #B1B8BC",
".. c #F4DC8F",
"X. c #E6D598",
"o. c #F7E091",
"O. c #F8E091",
"+. c #F8E092",
"@. c #BDC5C8",
"#. c #C5CBCD",
"$. c #CFD4D6",
"%. c #D2D5D8",
"&. c #D4D8DB",
"*. c #E9EBEC",
"=. c #EAEBEC",
"-. c #EAECED",
";. c #F2F3F3",
":. c gray96",
">. c #F5F6F6",
",. c #F6F6F6",
"<. c gray97",
"1. c gray97",
"2. c #F9F9F9",
"3. c #F8F8F8",
"4. c gray98",
"5. c #FAFBFB",
"6. c #FBFBFB",
"7. c #FBFAFA",
"8. c #FBFCFC",
"9. c gray99",
"0. c #FDFDFC",
"q. c #FDFDFD",
"w. c #FEFEFE",
"e. c #FFFFFE",
"r. c #FEFEFF",
"t. c #FEFFFF",
"y. c white",
"u. c #FDFDFD",
/* pixels */
"                                                                                                                                                ",
"                                                                                                                                                ",
"                                                                                                                                                ",
"                                                                                                                                                ",
"                                                                                                                                                ",
"                                                                                                                                                ",
"                                                                                                                                                ",
"                                                                                                                                                ",
"                                                                                                                                                ",
"                                                            3 3 3 3 3 3 3 3 3 3 3 3 3                                                           ",
"                                                            . . . . . . . . . . . . .                                                           ",
"                                                            . . . . . . . . . . . . .                                                           ",
"                                                          x = = = = = = = = = = = = =                                                           ",
"                                              . . . . . . * j j j j j j j j j j j j j + . . . . . $                                             ",
"                                              . . . . . . * j j j j j j j j j j j j j + . . . . . $                                             ",
"                                              o o o o o o = j j j h j j h j j h h j j # o o o o o *                                             ",
"                                      M @ @ * i i i r i i i j j j h j j h j j j j j j i i i r i i w * @ @                                       ",
"                                      c . . + j j j j j j j j j j j j j j j j j j j j j j j j j j r + . .                                       ",
"                                      c . . + j j j j j j j j j j j j j j j j j j j j j j j j j j r + . .                                       ",
"                                m d d y 2 2 8 j j j h j j h j j j h j j h j j h h j j h j j h h j i 9 2 2                                       ",
"                                $ . . 1 j j j j j j j j j j j j j j j j j j j j j j j j j j j j j j j j j < . . $                               ",
"                                $ . . 1 j j j j j j j j j j j j j j j j j j j j j j j j j j j j j j j j j < . . $                               ",
"                                $ . . 1 j j h j j j h j j h j j j h j j h j j h h j j h j j h h j h h j j < . . $                               ",
"                                $ . . 1 j j j j j j j j j h j j j j j j j j j j j j j j j j j j j j j j j < . . $                               ",
"                                $ . . 1 j j j j j j j j j j j j j j j j j j j j j j j j j j j j j j j j j < . . $                               ",
"                                $ . . 1 j j j j j j j j j h j j j h j j h j j j j j j h j j h j j j h j j 1 . . $                               ",
"                            d s 9 2 2 w j j h j j j h j j h j j j h j j h j j h h j j h j j h h j h h j j w 2 2 9                               ",
"                          . . O e j j j j j j j j j j j j j j j j j j j j j j j j j j j j j j j j j j j j j j j r X . .                         ",
"                          . . O e j j j j j j j j j j j j j j j j j j j j j j j j j j j j j j j j j j j j j j j r X . .                         ",
"                          . . O e j j h j j h j j j b ) ) l 0 0 0 h j j h j j k ) ) ) u 0 0 w h j h h j j h j j e X . .                         ",
"                          . . O e j j j j j j j j j &.y.y.] . . . j j j j j j ) 8.y.y.3 . . = j j j j j j h j j r X . .                         ",
"                          . . O e j j j j j j j j j &.y.y.] . . . j j j j j j ) 8.y.y.3 . . = j j j j j j j j j r X . .                         ",
"                          . . O e j j j j j j j j j $.6.6.] . . . h j j j j j n :.6.6.3 . . = j j j j j j h j j e X . .                         ",
"                          . . O e j j h j j h j j j 4 ; ; $ . . . h j j h j j u ; ; ; o . . = j j h h j j h j j e X . .                         ",
"                          . . o e j j j j j j j j j @ . . . . . . j j j j j j q . . . . . . = j j j j j j h j j r X . .                         ",
"                          . . O e j j j j j j j j j @ . . . . . . j j j j j j q . . . . . . = j j j j j j j j j e X . .                         ",
"                          . . O e j j h j j h j j j 1 - = % 7 7 6 P P P P P P G 6 7 7 : = - 8 h j h h j j h j j e X . .                         ",
"                          . . O e j j j j j j j j j j j j L ~ ~ ~ ~ ~ ~ ! ~ ~ ~ ~ ~ ~ g j j j j j j j j j j j j r X . .                         ",
"                          . . O e j j j j j j j j j j j j L ~ ~ ~ ~ ~ ~ ! ~ ~ ~ ~ ~ ~ g j j j j j j j j j j j j r X . .                         ",
"                          X X + e j j h j j h j j j h j j H W W W R ~ ~ R ~ ~ R T W W f j j h h j h h j j h j j e o X X                         ",
"                  $ . . 1 j j h j j j h j j j j j j j j j h p p a R ~ ~ E ~ ~ Y a p p h j j h j j j j j j h j j j j j j * . . 5                 ",
"                  $ . . 1 j j j j j j j j j j j j j j j j j j j k ! ~ ~ ! ~ ~ Y p j j j j j j j j j j j j j j j j j j j * . . 5                 ",
"                  $ . . 1 j j j j j j j j j j j j j j j j j j j k ! ~ ~ ~ ~ ~ Y p j j j j j j j j j j j j j j j j j j j * . . 5                 ",
"                  $ . . > h h h h h h h h h h h h h [ | | } | | | ..O.O...o.O.X.} | | } | | ` h h h h h h i h h h h h j * . . 5                 ",
"                  $ . . 1 j j j j j j j j j j j j j &.y.y.6.y.y.y.6.y.y.6.y.y.y.6.y.y.6.y.y. .j j j j j j h j j j j j j * . . 5                 ",
"                  $ . . 1 j j j j j j j j j j j j j &.y.y.6.y.y.y.6.y.y.6.y.y.y.6.y.y.6.y.y. .j j j j j j j j j j j j j * . . 5                 ",
"                  $ . . > h h i i i i i h h j l l l %.6.6.:.6.6.6.:.6.6.:.6.6.:.:.6.6.:.6.6. .l l l j h h i i i i h h j * . . 5                 ",
"                  $ . . 1 j j w o . . 1 j j b y.y.y.6.y.y.6.y.y.y.6.y.y.6.y.y.y.6.y.y.6.y.y.6.y.y.*.b j j < . . o i j j * . . 5                 ",
"                  $ . . 1 j j w o . . 1 j j b y.y.y.6.y.y.6.y.y.y.6.y.y.6.y.y.y.6.y.y.6.y.y.6.y.y.-.b j j < . . o i j j * . . 5                 ",
"                  $ . . > j j w o . . 1 j j b y.y.y.6.y.y.6.y.y.y.6.y.y.6.y.y.y.6.y.y.6.y.y.6.y.y.*.b j j < . . o i j j * . . 5                 ",
"                          & & # X . . v @.@.#.6.6.6.:.6.6.:.6.6.6.:.6.6.:.6.6.6.:.6.6.:.6.6.:.6.6.;.#.@.@.v . . . # & & m { {                   ",
"                          . . . . . . ' y.y.6.y.y.y.6.y.y.6.y.y.y.6.y.y.6.y.y.y.6.y.y.6.y.y.6.y.y.y.6.y.y._ . . . . . .                         ",
"                          . . . . . . ' y.y.6.y.y.y.6.y.y.6.y.y.y.6.y.y.6.y.y.y.6.y.y.6.y.y.6.y.y.y.6.y.y._ . . . . . .                         ",
"                                o . . _ 6.6.:.6.6.6.:.6.6.:.6.6.6.:.6.6.:.6.6.6.:.6.6.:.6.6.:.6.6.6.:.6.6._ . . o 5 t t                         ",
"                                $ . . ' y.y.6.y.y.y.6.y.y.6.y.y.y.6.y.y.6.y.y.y.6.y.y.6.y.y.6.y.y.y.6.y.y._ . . $                               ",
"                                $ . . ' y.y.6.y.y.y.6.y.y.6.y.y.y.6.y.y.6.y.y.y.6.y.y.6.y.y.6.y.y.y.6.y.y._ . . $                               ",
"                                $ . . ' y.y.6.y.y.y.6.y.y.6.y.y.y.6.y.y.6.y.y.y.6.y.y.6.y.y.6.y.y.y.6.y.y._ . . $                               ",
"                                $ . . A ^ ^ / ^ ^ ( / ^ ^ I $ $ $ $ $ $ $ $ $ $ $ $ $ Q ( ^ / / ^ / / ^ ^ S . . $                               ",
"                                $ . . N ~ ~ ~ ~ ~ ~ ~ ~ ~ C . . . . . . . . . . . . . U ~ ~ E ~ ~ ~ ~ ~ ~ B . . $                               ",
"                                $ . . N ~ ~ ~ ~ ~ ~ ~ ~ ~ Z . . . . . . . . . . . . . U ~ ~ E ~ ~ ~ ~ ~ ~ V . . $                               ",
"                                  s s F K K J J K J J K K F                           D K K J J K J J K K F s s z                               ",
"                                        . . . . . . . . .                             3 . . . . . . . . . c                                     ",
"                                        . . . . . . . . .                             3 . . . . . . . . . c                                     ",
"                                        . . . . . . . . .                             3 . . . . . . . . . c                                     ",
"                                                                                                                                                ",
"                                                                                                                                                ",
"                                                                                                                                                ",
"                                                                                                                                                ",
"                                                                                                                                                ",
"                                                                                                                                                ",
"                                                                                                                                                ",
"                                                                                                                                                "
};
